<svg
    xmlns="http://www.w3.org/2000/svg"
    width="1282pt"
    height="1282pt"
    viewBox="0 0 1282 1282"
    preserveAspectRatio="xMidYMid meet"
    
  >
<style>
  #mozart-root { transform: none; }
</style>
<g id="mozart-root">
    <g fill="#F2DBB8FC">
      <path d="M 582.48 648.60 C 574.78 647.36 568.75 645.82 564.50 644.01 C 561.11 642.56 549.67 639.00 548.56 639.04 C 547.98 639.06 549.30 640.69 551.50 642.67 L 555.50 646.26 L 550.50 642.63 C 539.12 634.39 520.34 622.00 519.22 622.00 C 517.44 622.00 508.00 613.74 508.00 612.18 C 508.00 611.74 505.96 609.95 503.47 608.19 C 500.98 606.43 498.66 604.27 498.32 603.38 C 497.97 602.49 495.84 599.86 493.58 597.53 C 491.31 595.20 487.22 589.96 484.49 585.90 C 478.37 576.80 466.72 553.68 468.61 554.41 C 470.04 554.95 470.36 553.73 470.04 548.85 C 469.95 547.39 470.34 545.91 470.91 545.56 C 472.66 544.48 473.00 537.08 473.45 491.00 C 473.94 441.77 474.62 434.57 480.14 420.74 C 482.43 414.99 484.58 411.61 488.45 407.68 C 496.12 399.89 501.39 397.65 513.00 397.23 C 523.52 396.86 530.10 398.30 559.50 407.39 C 588.36 416.31 592.40 417.12 607.93 417.08 C 619.25 417.05 628.37 414.93 640.46 409.53 C 673.89 394.59 679.08 392.73 687.59 392.67 C 692.57 392.63 694.66 393.18 699.09 395.66 C 703.97 398.41 704.91 399.52 708.73 407.10 C 716.75 423.02 720.50 445.16 720.50 476.50 C 720.50 488.05 720.11 497.78 719.64 498.13 C 719.17 498.47 718.82 500.95 718.86 503.63 C 719.13 520.72 718.73 531.15 717.46 539.59 C 716.67 544.89 716.31 549.69 716.66 550.26 C 717.02 550.84 716.84 551.02 716.27 550.66 C 714.66 549.67 714.10 555.95 715.65 557.51 C 716.45 558.31 716.58 558.97 715.96 559.18 C 715.40 559.37 714.30 561.99 713.50 565.01 C 712.71 568.03 711.64 571.40 711.13 572.50 C 710.61 573.60 708.76 577.59 707.01 581.36 C 704.16 587.51 702.09 590.96 694.24 602.62 C 690.85 607.66 679.29 619.67 672.50 625.20 C 669.20 627.89 665.52 630.91 664.32 631.91 C 661.00 634.67 646.63 641.45 635.49 645.49 C 625.69 649.05 625.17 649.13 608.00 649.51 C 596.63 649.76 587.69 649.45 582.48 648.60ZM 619.78 602.57 C 630.47 599.73 635.93 595.50 632.87 592.45 C 631.42 590.99 630.74 591.08 624.96 593.52 C 612.89 598.60 601.23 598.54 588.60 593.35 C 582.67 590.92 581.78 590.79 580.44 592.13 C 573.56 599.01 603.41 606.93 619.78 602.57ZM 617.50 563.88 C 619.87 563.22 623.22 561.04 625.75 558.52 C 629.54 554.72 630.00 553.76 630.00 549.57 C 630.00 546.98 629.50 543.89 628.88 542.68 C 627.03 539.06 620.72 533.00 618.80 533.00 C 616.14 533.00 616.59 534.71 620.45 539.21 C 625.81 545.47 625.77 550.03 620.31 555.49 C 614.53 561.27 605.26 561.46 595.18 556.00 C 592.14 554.35 589.05 553.00 588.32 553.00 C 585.75 553.00 587.05 555.76 590.87 558.41 C 599.44 564.35 608.85 566.28 617.50 563.88ZM 678.00 528.31 C 679.92 527.42 684.26 523.88 687.64 520.45 C 693.98 514.01 696.36 509.32 698.99 498.15 C 700.14 493.27 700.08 492.58 698.29 490.15 C 693.68 483.89 679.98 479.30 668.74 480.25 C 665.06 480.57 663.32 480.45 664.50 479.96 C 665.60 479.51 669.42 479.05 673.00 478.94 L 679.50 478.73 L 674.50 477.99 C 671.75 477.59 668.15 477.49 666.50 477.78 C 663.15 478.37 658.63 481.00 660.97 481.00 C 661.75 481.00 660.07 482.16 657.24 483.57 C 654.41 484.98 650.76 487.65 649.14 489.49 C 647.52 491.34 645.85 492.55 645.43 492.18 C 645.02 491.80 644.94 491.96 645.26 492.52 C 645.85 493.56 641.66 501.33 640.91 500.58 C 640.46 500.12 640.19 501.91 639.56 509.70 L 639.13 514.89 L 647.55 522.40 C 655.76 529.73 656.32 530.01 665.00 531.37 C 667.28 531.72 674.08 530.12 678.00 528.31ZM 554.50 528.13 C 557.25 527.10 560.62 525.78 562.00 525.21 C 565.19 523.88 571.12 518.05 573.02 514.35 C 573.83 512.78 574.93 511.19 575.47 510.80 C 576.63 509.97 574.59 503.73 571.91 499.92 C 570.88 498.44 570.33 496.44 570.64 495.25 C 571.04 493.76 570.53 492.83 568.84 491.94 C 566.50 490.71 566.50 490.71 568.41 492.86 C 569.46 494.04 570.11 495.23 569.85 495.49 C 569.27 496.06 560.21 486.19 560.67 485.49 C 560.85 485.22 560.72 485.21 560.37 485.46 C 559.22 486.31 556.06 484.00 556.57 482.69 C 557.30 480.78 549.85 477.00 545.36 477.00 C 540.24 477.00 526.63 479.49 521.00 481.45 C 518.52 482.31 514.18 484.78 511.34 486.93 C 508.50 489.08 506.00 490.67 505.79 490.45 C 505.58 490.24 505.66 492.42 505.98 495.28 C 506.80 502.73 511.92 510.98 521.98 521.09 C 526.68 525.81 531.20 529.97 532.01 530.33 C 534.69 531.50 549.38 530.06 554.50 528.13ZM 578.68 489.34 C 578.32 488.98 576.28 487.91 574.16 486.96 L 570.30 485.23 L 571.40 487.61 C 572.24 489.43 573.30 489.99 575.92 489.99 C 577.80 490.00 579.04 489.71 578.68 489.34ZM 584.35 484.80 C 584.06 476.10 578.36 468.77 568.21 464.07 C 565.02 462.59 563.42 461.36 564.13 460.92 C 564.82 460.49 564.31 460.18 562.90 460.17 C 561.58 460.15 555.77 458.46 550.00 456.41 C 540.55 453.06 538.45 452.67 529.00 452.59 C 519.44 452.51 518.05 452.74 513.50 455.17 C 507.88 458.17 499.90 466.06 495.10 473.37 C 493.35 476.05 492.04 478.35 492.20 478.48 C 492.37 478.61 493.85 479.02 495.50 479.39 C 497.51 479.84 498.04 479.75 497.09 479.12 C 495.17 477.85 507.83 471.49 516.25 469.50 C 522.75 467.97 537.46 467.48 531.50 469.00 C 529.17 469.59 528.99 469.79 530.69 469.88 C 531.90 469.95 533.16 470.45 533.50 471.00 C 533.84 471.55 535.55 471.96 537.31 471.92 L 540.50 471.84 L 537.50 470.46 C 535.85 469.71 535.08 469.07 535.78 469.05 C 538.15 468.96 552.37 474.99 567.50 482.48 C 575.75 486.57 582.95 489.77 583.50 489.60 C 584.05 489.43 584.43 487.27 584.35 484.80ZM 645.82 483.74 C 655.63 477.06 668.92 470.34 676.00 468.47 C 679.02 467.68 684.42 467.08 688.00 467.15 C 693.58 467.27 693.93 467.37 690.50 467.91 C 686.87 468.47 686.73 468.60 689.00 469.25 C 690.38 469.65 692.85 469.97 694.50 469.97 C 696.80 469.97 697.15 469.74 696.00 469.00 C 694.88 468.28 694.84 468.03 695.83 468.02 C 696.56 468.01 701.65 470.22 707.14 472.92 C 718.73 478.64 720.05 478.10 714.74 469.82 C 707.51 458.59 697.22 451.87 686.10 451.16 C 677.25 450.59 670.20 452.36 658.42 458.08 C 645.98 464.14 639.70 469.89 637.51 477.27 C 635.49 484.09 635.57 489.00 637.72 489.00 C 637.93 489.00 641.57 486.63 645.82 483.74ZM 668.52 473.88 C 671.00 472.72 673.26 471.38 673.55 470.91 C 674.18 469.89 667.31 472.23 663.32 474.39 C 658.88 476.80 663.23 476.37 668.52 473.88ZM 551.00 453.50 C 551.00 452.37 549.84 452.02 546.25 452.08 L 541.50 452.15 L 545.00 453.50 C 549.66 455.30 551.00 455.30 551.00 453.50ZM 703.00 454.04 C 703.00 452.64 700.05 451.27 695.48 450.55 L 691.50 449.91 L 696.00 452.32 C 700.99 454.99 703.00 455.48 703.00 454.04Z" />
    </g>
    <g fill="#EBEBEAF5">
      <path d="M 436.86 562.92 C 436.17 562.48 435.24 562.35 434.80 562.62 C 434.36 562.90 434.00 562.64 434.00 562.06 C 434.00 561.48 433.66 561.07 433.25 561.16 C 431.28 561.59 426.50 558.57 422.15 554.15 C 418.46 550.40 416.95 547.89 415.68 543.36 C 414.07 537.63 413.73 528.00 415.12 528.00 C 415.50 528.00 415.58 527.10 415.29 526.00 C 415.00 524.90 415.23 524.00 415.80 524.00 C 416.37 524.00 417.14 522.62 417.51 520.93 C 417.89 519.25 418.82 517.62 419.59 517.33 C 420.37 517.03 421.00 516.27 421.00 515.63 C 421.00 514.99 422.12 513.63 423.50 512.60 C 424.88 511.56 426.00 510.41 426.00 510.02 C 426.00 509.37 422.10 507.24 421.00 507.29 C 420.13 507.34 413.00 500.07 413.00 499.14 C 413.00 498.65 412.31 497.68 411.48 496.98 C 410.64 496.28 410.18 495.48 410.47 495.20 C 410.75 494.92 410.46 494.05 409.81 493.27 C 409.17 492.50 408.52 488.41 408.38 484.18 C 408.16 477.88 408.58 475.34 410.69 470.00 C 413.21 463.63 418.28 457.09 420.75 457.03 C 421.44 457.01 422.00 456.52 422.00 455.94 C 422.00 455.36 422.35 455.10 422.78 455.36 C 423.21 455.63 424.54 455.09 425.74 454.17 C 427.86 452.55 427.94 451.78 428.35 428.00 C 428.57 414.52 429.08 402.38 429.46 401.00 C 429.85 399.62 430.25 397.51 430.37 396.30 C 430.48 395.09 430.89 393.77 431.29 393.38 C 431.68 392.99 432.00 391.79 432.00 390.73 C 432.00 387.89 435.02 374.81 436.17 372.64 C 436.71 371.61 437.33 369.90 437.53 368.84 C 438.22 365.24 440.40 360.00 441.20 360.00 C 441.64 360.00 442.00 359.21 442.00 358.25 C 442.01 357.29 442.90 355.04 443.99 353.25 C 445.08 351.46 445.79 350.00 445.57 350.00 C 445.35 350.00 446.24 348.09 447.55 345.75 C 448.87 343.41 450.84 339.86 451.94 337.85 C 453.04 335.85 454.51 333.59 455.22 332.84 C 455.92 332.08 457.37 329.90 458.43 327.98 C 460.21 324.75 461.70 322.83 466.25 317.90 C 467.21 316.85 468.00 315.54 468.00 314.97 C 468.00 314.40 468.79 313.64 469.75 313.27 C 471.95 312.44 474.00 310.45 474.00 309.14 C 474.00 308.59 474.90 307.85 476.00 307.50 C 477.10 307.15 478.00 306.25 478.00 305.50 C 478.00 304.75 478.79 303.87 479.75 303.55 C 480.71 303.24 483.30 301.40 485.49 299.49 C 487.68 297.57 490.00 296.00 490.63 296.00 C 491.27 296.00 492.01 295.43 492.27 294.73 C 492.54 294.03 495.85 291.92 499.63 290.03 C 503.41 288.14 507.09 286.01 507.82 285.30 C 508.55 284.58 509.77 284.00 510.54 284.00 C 511.31 284.00 513.53 283.11 515.47 282.02 C 517.41 280.93 519.00 280.26 519.00 280.54 C 519.00 280.82 520.01 280.40 521.25 279.62 C 522.49 278.84 525.08 277.87 527.00 277.47 C 528.92 277.07 531.62 276.28 533.00 275.72 C 536.35 274.34 536.54 274.29 544.00 272.93 C 547.58 272.28 550.97 271.38 551.55 270.92 C 552.12 270.47 553.47 270.12 554.55 270.15 C 555.62 270.18 558.08 269.90 560.00 269.53 C 565.88 268.39 598.06 268.16 605.50 269.20 C 609.35 269.74 613.62 270.25 615.00 270.34 C 616.38 270.43 617.95 270.79 618.50 271.14 C 619.05 271.49 622.13 272.08 625.34 272.45 C 628.55 272.82 632.15 273.49 633.34 273.94 C 634.53 274.39 635.86 274.75 636.29 274.75 C 637.90 274.72 654.52 280.47 655.07 281.24 C 655.39 281.69 656.52 282.21 657.58 282.42 C 660.52 282.98 674.01 289.50 678.29 292.41 C 680.38 293.84 682.31 295.00 682.59 295.00 C 683.91 295.00 698.09 308.12 702.00 312.96 C 703.38 314.67 705.29 316.82 706.25 317.75 C 707.21 318.68 708.00 319.94 708.00 320.55 C 708.00 321.15 709.12 322.71 710.50 324.00 C 711.88 325.29 713.00 326.79 713.00 327.33 C 713.00 327.87 714.12 329.79 715.50 331.59 C 716.87 333.39 718.00 335.11 718.00 335.40 C 718.00 335.70 719.12 338.40 720.50 341.41 C 721.88 344.41 723.00 347.14 723.00 347.47 C 723.00 347.80 723.75 349.74 724.66 351.78 C 725.57 353.83 726.42 355.84 726.53 356.25 C 726.65 356.66 726.84 357.11 726.95 357.25 C 727.27 357.64 727.90 360.05 729.26 366.00 C 729.94 369.02 730.84 372.01 731.24 372.63 C 732.63 374.77 734.30 389.58 735.58 411.00 C 735.90 416.23 736.39 423.09 736.67 426.25 C 736.95 429.41 736.81 432.00 736.34 432.01 C 735.88 432.01 735.36 436.40 735.19 441.76 L 734.88 451.50 L 738.88 452.74 C 745.37 454.74 753.62 464.47 754.71 471.42 C 754.98 473.11 755.55 475.18 755.98 476.00 C 756.83 477.64 756.71 483.62 755.78 486.00 C 755.46 486.82 754.64 489.64 753.97 492.25 C 753.29 494.86 752.42 497.00 752.04 497.00 C 751.65 497.00 750.76 498.08 750.06 499.40 C 748.81 501.72 741.76 507.00 739.91 507.00 C 738.25 507.00 738.96 508.89 741.75 511.91 C 745.74 516.24 747.14 518.00 746.59 518.00 C 746.32 518.00 746.80 519.68 747.66 521.73 C 750.03 527.40 749.73 538.86 747.07 544.35 C 742.39 554.03 735.43 558.57 724.50 559.08 C 716.34 559.47 714.04 558.11 714.74 553.34 C 715.14 550.58 715.30 550.51 720.45 550.84 C 737.32 551.90 746.54 532.37 736.49 516.87 C 733.82 512.76 726.99 509.00 722.18 509.00 C 720.36 509.00 718.96 508.47 718.90 507.75 C 718.64 504.67 718.88 498.79 719.26 498.40 C 719.50 498.17 721.38 498.68 723.45 499.54 C 731.24 502.80 741.33 497.66 745.55 488.28 C 751.70 474.62 736.99 453.27 723.99 457.00 C 722.36 457.47 720.82 457.52 720.57 457.12 C 720.32 456.71 719.39 450.78 718.51 443.94 C 716.28 426.74 713.68 416.93 708.73 407.10 C 704.91 399.52 703.97 398.41 699.09 395.66 C 694.66 393.18 692.57 392.63 687.59 392.67 C 679.08 392.73 673.89 394.59 640.46 409.53 C 628.37 414.93 619.25 417.05 607.93 417.08 C 592.40 417.12 588.36 416.31 559.50 407.39 C 530.10 398.30 523.52 396.86 513.00 397.23 C 501.39 397.65 496.12 399.89 488.45 407.68 C 484.58 411.61 482.43 414.99 480.14 420.74 C 474.62 434.57 473.94 441.77 473.45 491.00 C 473.00 537.08 472.66 544.48 470.91 545.56 C 470.34 545.91 469.95 547.39 470.04 548.85 C 470.37 553.91 470.06 554.96 468.45 554.34 C 467.56 554.00 466.30 554.54 465.48 555.62 C 464.61 556.78 464.05 557.00 464.03 556.21 C 464.01 555.38 463.20 555.67 461.77 557.00 C 460.54 558.14 458.52 559.33 457.27 559.65 C 456.02 559.96 455.00 560.59 455.00 561.04 C 455.00 563.04 439.64 564.63 436.86 562.92ZM 449.77 553.45 C 457.15 550.37 461.51 544.01 462.60 534.74 C 463.66 525.69 458.91 517.07 450.86 513.44 C 447.35 511.86 446.12 511.77 441.30 512.78 C 435.14 514.08 429.81 517.63 426.92 522.37 C 425.50 524.69 425.01 527.38 425.00 532.78 C 425.00 543.96 428.36 549.77 436.73 553.04 C 442.63 555.35 445.05 555.42 449.77 553.45ZM 444.64 500.75 C 456.05 495.75 461.15 484.82 457.63 472.90 C 455.93 467.14 450.59 460.56 446.30 458.92 C 436.81 455.32 424.00 462.05 418.56 473.51 C 414.38 482.33 419.77 496.63 428.80 500.64 C 432.41 502.24 441.08 502.30 444.64 500.75Z" />
    </g>
    <g fill="#D4383EFB">
      <path d="M 564.87 929.49 C 562.73 928.40 551.18 924.82 531.22 919.03 C 526.96 917.80 524.19 916.50 524.56 915.91 C 524.90 915.35 523.91 912.36 522.34 909.26 C 520.30 905.23 517.93 902.48 513.96 899.55 L 508.42 895.47 L 511.21 893.16 C 515.49 889.62 515.07 885.20 510.03 880.64 C 507.84 878.67 504.88 876.76 503.46 876.40 C 500.21 875.58 489.26 877.32 474.71 880.96 C 457.42 885.29 437.17 888.57 435.86 887.26 C 435.26 886.66 434.66 884.84 434.52 883.20 C 434.38 881.57 434.00 879.81 433.68 879.30 C 433.36 878.78 432.65 875.69 432.09 872.43 C 431.54 869.17 430.87 865.48 430.60 864.22 C 430.32 862.93 430.51 862.20 431.05 862.53 C 431.57 862.85 432.00 862.74 432.00 862.27 C 432.00 861.81 433.39 860.61 435.08 859.61 C 436.77 858.61 439.73 855.34 441.65 852.34 L 445.14 846.88 L 449.10 851.38 C 459.18 862.82 467.18 862.72 475.58 851.02 C 477.56 848.26 479.55 846.00 480.00 846.00 C 480.45 846.00 482.69 848.24 484.99 850.98 C 489.75 856.67 495.17 859.05 498.85 857.08 C 500.75 856.06 501.00 855.08 501.00 848.46 C 501.00 844.36 500.81 841.00 500.57 841.00 C 500.34 841.00 499.41 841.73 498.52 842.63 C 497.01 844.13 496.44 843.78 491.04 838.13 C 485.40 832.21 485.02 832.00 480.17 832.00 C 474.24 832.00 470.65 834.50 466.54 841.52 C 465.10 843.98 463.68 846.00 463.39 846.00 C 463.10 846.00 460.31 843.33 457.18 840.06 C 451.14 833.75 448.11 832.38 442.50 833.43 C 438.58 834.17 432.90 839.42 430.96 844.09 C 429.54 847.53 427.64 847.45 427.20 843.92 C 427.04 842.59 426.63 840.83 426.29 840.00 C 424.92 836.66 425.40 831.86 427.20 830.89 C 431.15 828.78 448.29 826.06 461.50 825.45 C 474.28 824.86 478.94 825.15 496.25 827.60 L 501.00 828.27 L 501.00 822.15 L 501.00 816.02 L 496.93 815.37 L 492.85 814.72 L 493.18 801.61 C 493.47 789.77 493.76 787.97 496.19 783.00 C 499.28 776.69 508.81 758.99 509.92 757.50 C 510.33 756.95 512.18 752.67 514.03 748.00 C 515.88 743.33 517.76 739.07 518.20 738.55 C 519.48 737.03 519.12 735.00 517.57 735.00 C 516.78 735.00 515.88 735.80 515.57 736.78 C 515.26 737.76 513.39 741.02 511.42 744.03 C 507.75 749.62 490.79 783.57 489.49 787.90 C 489.09 789.23 488.65 794.85 488.52 800.40 C 488.38 805.96 488.21 811.11 488.13 811.87 C 488.03 812.93 486.77 813.08 482.34 812.52 C 472.23 811.26 450.59 811.77 441.44 813.48 C 436.33 814.44 432.35 814.75 431.83 814.23 C 429.93 812.33 429.69 792.57 431.44 782.86 C 433.08 773.73 434.74 767.52 436.08 765.50 C 436.44 764.95 437.31 762.02 438.01 759.00 C 438.71 755.98 439.90 752.61 440.64 751.53 C 441.39 750.44 442.00 748.99 442.00 748.31 C 442.00 747.62 443.12 744.60 444.50 741.59 C 445.88 738.59 447.00 735.65 447.00 735.07 C 447.00 730.62 471.27 680.67 477.99 671.29 C 489.65 655.02 509.19 633.00 511.98 633.00 C 512.69 633.00 516.57 636.14 520.61 639.98 C 533.61 652.32 546.90 661.38 566.12 671.01 C 572.93 674.42 579.07 677.67 579.76 678.23 C 581.81 679.90 586.87 691.98 593.53 711.07 C 604.04 741.20 609.00 777.59 609.00 824.47 C 609.00 856.56 606.82 868.08 596.80 888.91 C 591.02 900.92 577.01 921.21 569.40 928.59 C 567.56 930.38 566.89 930.51 564.87 929.49ZM 601.51 852.75 C 604.58 850.11 605.89 843.52 604.03 840.06 C 603.38 838.83 601.34 837.20 599.50 836.44 C 590.09 832.50 582.59 844.75 589.92 852.08 C 593.52 855.67 597.82 855.92 601.51 852.75ZM 602.20 803.31 C 606.89 798.82 605.81 791.51 600.02 788.51 C 595.73 786.29 593.20 786.65 589.92 789.92 C 581.10 798.75 593.19 811.94 602.20 803.31ZM 594.45 758.58 C 598.49 756.90 600.00 754.42 600.00 749.49 C 600.00 744.67 595.56 740.00 590.98 740.00 C 586.68 740.00 582.00 744.94 582.00 749.47 C 582.00 753.96 586.14 758.89 590.78 759.94 C 590.94 759.97 592.59 759.36 594.45 758.58Z" />
    </g>
    <g fill="#D4383EFB">
      <path d="M 535.50 1034.88 C 518.14 1033.26 484.51 1025.88 479.50 1022.59 C 477.82 1021.49 477.47 1020.45 477.80 1017.59 C 478.30 1013.27 478.34 1013.24 488.69 1009.90 C 500.14 1006.20 515.98 997.11 531.95 985.07 C 538.54 980.11 558.63 962.08 565.38 955.07 C 570.68 949.56 570.86 949.49 576.01 951.08 C 577.93 951.67 592.33 955.46 608.00 959.50 C 646.50 969.42 648.27 969.94 650.04 971.84 C 651.60 973.51 651.91 977.80 650.73 981.50 C 650.38 982.60 649.39 990.02 648.54 998.00 C 647.68 1005.98 646.77 1013.60 646.51 1014.95 C 645.70 1019.14 642.95 1020.85 635.00 1022.08 C 625.71 1023.53 591.84 1022.67 584.09 1020.80 C 579.32 1019.65 578.54 1019.10 577.56 1016.19 C 576.95 1014.37 576.07 1013.25 575.61 1013.69 C 575.15 1014.14 575.09 1012.92 575.49 1011.00 C 575.89 1009.08 576.26 1007.27 576.31 1007.00 C 576.50 1005.88 574.86 985.27 574.34 982.25 C 574.03 980.46 573.41 979.00 572.97 979.00 C 572.52 979.00 570.50 983.39 568.49 988.75 C 566.47 994.11 563.73 1001.12 562.41 1004.32 C 561.08 1007.51 560.00 1010.95 560.00 1011.94 C 560.00 1013.87 557.81 1019.87 555.60 1024.00 C 554.86 1025.38 553.71 1028.22 553.03 1030.31 C 551.87 1033.93 548.83 1036.23 545.68 1035.86 C 545.03 1035.79 540.45 1035.35 535.50 1034.88Z" />
    </g>
    <g fill="#D4383EFB">
      <path d="M 442.00 999.33 C 422.86 997.45 399.17 990.16 386.75 982.34 C 381.46 979.00 381.35 979.40 390.78 967.61 C 399.10 957.22 405.84 947.81 418.00 929.64 C 424.40 920.09 429.28 913.77 430.50 913.48 C 431.60 913.22 435.65 913.85 439.50 914.88 L 446.50 916.75 L 447.55 923.13 C 448.78 930.62 453.70 940.36 458.86 945.54 C 466.86 953.57 476.46 957.02 491.00 957.08 C 504.40 957.14 512.87 953.03 517.01 944.48 C 518.57 941.27 519.57 940.25 520.81 940.65 C 521.83 940.97 521.51 940.38 520.01 939.16 C 518.65 938.05 517.80 936.86 518.14 936.53 C 518.48 936.19 523.87 937.45 530.12 939.33 C 536.38 941.21 543.86 943.34 546.75 944.06 C 549.64 944.79 552.00 945.80 552.00 946.31 C 552.00 949.25 528.18 970.80 511.66 982.79 C 503.13 988.98 485.74 996.21 474.03 998.44 C 466.58 999.85 451.49 1000.27 442.00 999.33Z" />
    </g>
    <g fill="#EBEBEAF5">
      <path d="M 621.62 777.75 C 619.13 752.61 618.36 748.03 611.96 719.78 C 610.17 711.88 601.08 687.15 594.73 672.89 C 592.26 667.34 592.10 667.21 577.87 658.98 C 556.35 646.54 545.34 639.00 548.68 639.00 C 549.79 639.00 561.64 642.78 564.50 644.04 C 573.08 647.83 591.91 650.46 605.25 649.72 C 618.85 648.98 619.38 649.18 618.69 654.95 C 618.39 657.51 618.45 660.05 618.82 660.60 C 619.19 661.14 621.41 662.20 623.75 662.95 C 626.09 663.70 628.00 664.70 628.00 665.16 C 628.00 665.62 628.34 665.92 628.75 665.83 C 629.45 665.66 631.76 666.53 637.25 669.02 C 638.49 669.58 641.30 671.13 643.50 672.46 C 645.70 673.79 649.41 675.85 651.75 677.05 C 654.09 678.24 656.00 679.52 656.00 679.89 C 656.00 680.27 657.45 681.43 659.22 682.47 C 663.06 684.74 671.01 692.41 673.43 696.19 C 675.32 699.15 675.38 706.99 673.54 710.50 C 672.46 712.57 667.29 718.00 666.41 718.00 C 666.13 718.00 664.80 719.11 663.45 720.46 L 660.99 722.91 L 664.75 726.83 C 672.45 734.86 674.01 737.45 673.98 742.18 C 673.96 746.32 668.63 752.50 661.68 756.44 C 657.96 758.54 657.02 759.55 657.59 760.84 C 657.99 761.75 658.25 764.52 658.17 767.00 C 658.05 770.78 657.47 771.99 654.58 774.55 C 649.89 778.70 635.04 783.00 625.39 783.00 C 622.21 783.00 622.13 782.90 621.62 777.75ZM 638.34 764.33 C 638.70 763.96 640.58 763.50 642.51 763.30 C 652.07 762.32 654.06 758.19 645.75 756.58 C 640.43 755.56 636.31 756.81 635.40 759.74 C 635.10 760.71 634.43 762.29 633.92 763.25 C 633.15 764.68 633.40 765.00 635.32 765.00 C 636.61 765.00 637.97 764.70 638.34 764.33ZM 639.00 750.02 C 639.00 749.05 638.03 745.94 636.85 743.09 C 635.34 739.46 634.22 738.02 633.10 738.27 C 632.22 738.46 631.62 739.17 631.76 739.85 C 631.91 740.53 632.26 742.92 632.54 745.16 C 633.26 750.85 634.55 752.93 636.99 752.29 C 638.09 752.00 639.00 750.98 639.00 750.02ZM 626.00 735.94 C 626.00 735.36 626.44 735.15 626.97 735.48 C 627.50 735.81 629.19 735.45 630.72 734.67 C 632.25 733.90 636.47 733.04 640.10 732.76 C 647.46 732.20 652.32 730.32 652.79 727.84 C 653.04 726.56 651.97 726.05 647.80 725.48 C 644.89 725.09 641.37 724.19 639.98 723.48 C 637.37 722.14 632.00 722.57 632.00 724.12 C 632.00 724.60 631.66 724.89 631.25 724.76 C 629.85 724.31 625.78 727.83 626.45 728.92 C 626.82 729.51 626.46 730.00 625.65 730.00 C 624.69 730.00 624.27 730.84 624.44 732.41 C 624.63 734.09 624.30 734.67 623.35 734.31 C 622.61 734.02 622.00 734.25 622.00 734.81 C 622.00 735.76 623.50 736.74 625.25 736.92 C 625.66 736.96 626.00 736.52 626.00 735.94ZM 625.42 715.39 C 627.67 714.53 627.39 712.12 624.15 704.52 C 619.74 694.17 613.35 687.96 614.62 695.25 C 615.49 700.25 619.06 711.24 620.64 713.75 C 622.12 716.12 622.86 716.38 625.42 715.39ZM 653.00 709.03 C 653.00 707.64 646.17 699.34 643.69 697.72 C 641.33 696.17 641.24 696.19 641.72 698.05 C 642.00 699.12 642.66 700.00 643.18 700.00 C 643.69 700.00 643.87 700.40 643.57 700.89 C 643.27 701.37 643.69 702.33 644.51 703.01 C 645.33 703.69 646.00 704.76 646.00 705.40 C 646.00 707.89 648.98 710.82 650.99 710.29 C 652.10 710.00 653.00 709.43 653.00 709.03ZM 638.97 692.46 C 637.09 690.20 629.97 684.69 629.52 685.15 C 629.30 685.37 629.85 687.04 630.73 688.87 C 632.34 692.18 634.81 693.82 638.37 693.94 C 639.95 693.99 640.04 693.75 638.97 692.46Z" />
    </g>
    <g fill="#8E2222FD">
      <path d="M 612.50 945.29 C 609.12 943.46 588.45 937.08 585.75 937.03 C 584.79 937.01 584.00 936.55 584.00 936.00 C 584.00 935.45 584.41 935.00 584.90 935.00 C 585.40 935.00 586.95 933.05 588.35 930.67 C 592.31 923.90 592.53 923.83 601.53 926.13 L 609.47 928.17 L 611.77 925.33 C 628.64 904.56 638.00 892.29 638.00 890.94 C 638.00 889.75 633.86 886.00 632.56 886.02 C 630.71 886.04 629.58 887.28 622.16 897.50 C 618.16 903.00 613.46 909.25 611.70 911.40 C 609.94 913.54 608.16 915.86 607.75 916.56 C 607.17 917.53 606.10 917.59 603.25 916.81 C 601.19 916.25 599.34 915.64 599.13 915.45 C 598.93 915.26 600.78 911.59 603.25 907.30 C 615.47 886.01 617.82 879.47 621.73 855.95 C 623.14 847.43 623.42 839.95 623.27 815.47 L 623.07 785.43 L 631.34 784.31 C 635.89 783.69 642.85 782.09 646.81 780.76 C 650.77 779.43 654.24 778.57 654.51 778.84 C 654.78 779.11 655.01 781.40 655.02 783.92 C 655.03 786.44 655.51 791.65 656.08 795.50 C 656.65 799.35 657.53 807.23 658.04 813.00 C 658.54 818.77 659.38 826.92 659.91 831.11 C 660.99 839.64 660.71 889.62 659.58 890.76 C 659.18 891.16 658.41 890.70 657.88 889.74 C 656.54 887.36 653.31 887.55 651.95 890.09 C 651.11 891.66 651.15 892.96 652.11 895.34 C 652.81 897.08 653.64 898.73 653.94 899.00 C 654.25 899.27 655.49 901.52 656.69 904.00 C 658.63 908.00 658.82 909.62 658.36 918.50 C 657.65 932.29 655.36 937.72 652.95 931.37 C 651.57 927.75 645.27 915.21 642.80 911.20 C 640.92 908.13 640.65 908.01 639.01 909.49 C 638.04 910.37 633.81 916.64 629.60 923.43 C 625.40 930.22 620.40 937.74 618.49 940.14 C 614.51 945.14 614.35 945.68 616.75 946.31 C 617.97 946.63 618.04 946.79 617.00 946.84 C 616.17 946.89 614.15 946.19 612.50 945.29ZM 652.78 874.44 C 657.02 871.47 654.71 863.00 649.66 863.00 C 646.89 863.00 643.00 866.85 643.00 869.60 C 643.00 871.82 647.19 876.00 649.41 876.00 C 650.04 876.00 651.56 875.30 652.78 874.44ZM 653.25 837.19 C 655.58 835.19 655.46 832.12 652.96 829.46 C 648.86 825.09 641.81 829.73 643.96 835.39 C 644.98 838.07 648.64 840.22 650.50 839.23 C 651.05 838.94 652.29 838.02 653.25 837.19ZM 651.17 802.35 C 655.18 798.71 652.14 792.00 646.48 792.00 C 642.81 792.00 641.00 794.02 641.00 798.11 C 641.00 803.20 647.32 805.83 651.17 802.35Z" />
    </g>
    <g fill="#EBEBEAF5">
      <path d="M 480.06 1111.85 C 469.93 1110.79 468.27 1109.62 468.55 1103.75 C 469.04 1093.37 470.22 1077.48 470.64 1075.58 C 471.82 1070.26 472.27 1065.97 473.60 1047.50 C 474.51 1034.83 475.90 1027.70 477.83 1025.77 C 478.49 1025.11 480.98 1025.48 485.16 1026.83 C 501.88 1032.23 518.91 1035.51 540.68 1037.52 C 549.09 1038.30 549.95 1039.35 547.12 1045.39 C 546.06 1047.65 544.64 1051.30 543.95 1053.50 C 543.26 1055.70 542.08 1058.44 541.33 1059.60 C 540.58 1060.75 539.28 1064.34 538.44 1067.57 C 537.60 1070.79 536.54 1073.68 536.09 1073.97 C 535.64 1074.26 534.45 1077.99 533.45 1082.25 C 532.45 1086.51 531.27 1090.00 530.82 1090.00 C 530.37 1090.00 530.00 1090.61 530.00 1091.35 C 530.00 1094.30 526.20 1096.12 518.32 1096.91 C 506.15 1098.14 503.54 1100.34 504.64 1108.42 L 505.27 1113.00 L 496.89 1112.87 C 492.27 1112.79 484.70 1112.34 480.06 1111.85Z" />
    </g>
    <g fill="#E4B437F7">
      <path d="M 575.50 933.42 C 573.30 932.62 570.87 931.74 570.10 931.46 C 569.00 931.06 569.14 930.48 570.79 928.72 C 575.24 923.98 587.92 906.49 592.56 898.69 C 598.66 888.46 604.32 874.81 607.25 863.32 C 609.37 855.02 609.50 852.51 609.47 821.00 C 609.45 800.25 608.96 783.50 608.17 777.00 C 604.65 747.97 601.58 732.70 595.50 713.92 C 591.91 702.85 582.52 679.11 581.24 677.86 C 580.83 677.47 574.55 674.17 567.27 670.55 C 559.99 666.92 549.41 660.86 543.75 657.08 C 532.59 649.61 517.48 636.90 514.67 632.62 C 513.00 630.07 513.00 629.81 514.68 626.97 C 515.64 625.34 517.17 623.76 518.07 623.48 C 519.11 623.15 528.40 628.84 543.11 638.80 C 555.97 647.52 571.79 657.72 578.25 661.47 C 584.71 665.23 590.40 668.79 590.88 669.40 C 594.06 673.40 606.84 706.90 609.80 719.00 C 613.07 732.39 616.80 751.72 617.91 761.00 C 618.47 765.67 619.51 773.55 620.21 778.50 C 621.06 784.42 621.49 798.78 621.47 820.50 L 621.44 853.50 L 618.32 867.62 C 615.15 882.02 610.74 892.49 600.72 909.49 C 598.77 912.79 597.36 915.77 597.57 916.12 C 597.79 916.47 600.11 917.29 602.72 917.95 C 607.38 919.12 607.53 919.09 609.99 916.22 C 611.37 914.61 616.55 907.59 621.50 900.62 C 629.30 889.65 630.83 887.99 633.00 888.23 C 637.72 888.74 636.52 891.95 627.29 903.41 C 622.45 909.41 616.84 916.61 614.80 919.41 C 608.95 927.46 609.65 927.09 603.76 925.32 C 591.74 921.72 593.40 921.38 588.20 928.55 C 583.13 935.54 582.28 935.86 575.50 933.42Z" />
    </g>
    <g fill="#724919EF">
      <path d="M 653.96 1133.68 C 653.71 1133.45 648.33 1132.99 642.00 1132.64 C 635.67 1132.29 629.38 1131.78 628.00 1131.50 C 626.62 1131.22 617.17 1130.28 607.00 1129.41 C 579.39 1127.06 578.13 1126.03 578.05 1105.75 C 578.01 1095.27 578.19 1093.98 579.75 1093.84 C 580.71 1093.75 591.62 1093.64 604.00 1093.59 L 626.50 1093.50 L 626.19 1088.67 C 625.79 1082.39 627.04 1081.00 633.12 1081.00 C 635.81 1081.00 638.00 1080.63 638.00 1080.17 C 638.00 1079.38 639.27 1079.43 648.67 1080.59 C 652.56 1081.06 652.95 1081.40 654.34 1085.49 C 656.11 1090.68 655.57 1091.41 649.15 1092.39 C 643.04 1093.32 638.00 1095.62 638.00 1097.46 C 638.00 1099.66 642.66 1102.27 656.32 1107.70 C 664.47 1110.95 668.55 1112.11 669.47 1111.45 C 670.20 1110.93 672.89 1109.03 675.46 1107.24 L 680.12 1103.99 L 683.78 1106.74 C 685.79 1108.26 688.17 1110.17 689.06 1111.00 C 689.96 1111.83 692.50 1114.08 694.70 1116.00 C 699.34 1120.04 702.36 1125.30 701.53 1127.90 C 700.66 1130.65 696.33 1132.16 687.00 1132.96 C 677.29 1133.80 654.65 1134.29 653.96 1133.68Z" />
    </g>
    <g fill="#EBEBEAF5">
      <path d="M 591.00 1091.31 C 583.27 1090.85 581.00 1090.19 581.00 1088.42 C 581.00 1087.57 580.60 1087.13 580.11 1087.43 C 579.61 1087.74 579.25 1086.98 579.30 1085.74 C 579.35 1084.51 579.05 1076.30 578.64 1067.50 C 578.01 1053.91 577.40 1045.98 575.48 1026.79 C 575.04 1022.46 577.09 1021.52 583.77 1022.99 C 591.59 1024.72 628.87 1025.51 636.40 1024.11 C 640.71 1023.31 642.67 1023.31 643.64 1024.12 C 644.38 1024.73 644.78 1025.55 644.54 1025.94 C 644.29 1026.34 643.81 1029.55 643.47 1033.08 C 643.12 1036.61 642.44 1041.03 641.96 1042.91 C 641.47 1044.78 641.31 1046.69 641.60 1047.16 C 641.88 1047.62 641.71 1048.00 641.20 1048.00 C 640.70 1048.00 640.01 1051.04 639.66 1054.75 C 639.32 1058.46 638.80 1063.08 638.51 1065.00 C 638.22 1066.92 637.75 1070.26 637.46 1072.42 C 636.83 1077.00 634.74 1078.92 630.32 1078.97 C 625.48 1079.02 623.69 1081.43 624.24 1087.18 L 624.71 1092.00 L 610.60 1091.82 C 602.85 1091.71 594.02 1091.48 591.00 1091.31Z" />
    </g>
    <g fill="#724919EF">
      <path d="M 544.57 1156.12 C 544.28 1155.64 539.64 1155.18 534.27 1155.10 C 525.57 1154.97 520.87 1154.57 504.00 1152.54 C 492.01 1151.10 473.17 1147.16 470.78 1145.59 C 466.67 1142.90 465.68 1138.40 466.50 1126.16 C 467.26 1114.64 468.23 1111.49 470.72 1112.45 C 476.01 1114.48 506.38 1115.80 507.47 1114.05 C 507.79 1113.53 507.53 1111.02 506.89 1108.47 C 505.18 1101.70 506.98 1100.25 518.54 1099.02 C 523.47 1098.50 529.52 1097.65 531.99 1097.13 C 536.85 1096.10 540.00 1097.05 540.00 1099.54 C 540.00 1100.34 540.53 1101.00 541.17 1101.00 C 541.81 1101.00 542.08 1101.25 541.78 1101.55 C 541.48 1101.86 542.03 1103.77 543.02 1105.79 C 545.31 1110.51 544.19 1112.98 539.71 1113.06 C 537.95 1113.10 531.78 1114.11 526.01 1115.31 C 511.62 1118.31 511.56 1118.92 524.81 1128.80 C 528.28 1131.38 532.20 1134.37 533.53 1135.43 C 535.93 1137.34 536.03 1137.33 545.73 1134.70 C 551.10 1133.24 557.30 1131.74 559.50 1131.37 C 561.70 1131.00 564.41 1130.11 565.52 1129.38 C 567.34 1128.20 568.03 1128.50 572.29 1132.36 C 574.90 1134.73 578.17 1137.57 579.55 1138.68 C 582.50 1141.05 585.92 1147.34 585.57 1149.74 C 585.43 1150.66 584.17 1152.28 582.76 1153.33 C 580.44 1155.06 578.48 1155.24 562.54 1155.13 C 551.08 1155.05 545.11 1155.36 545.50 1156.01 C 545.84 1156.55 545.89 1157.00 545.62 1157.00 C 545.34 1157.00 544.87 1156.60 544.57 1156.12Z" />
    </g>
    <g id="shoot-hand" fill="#F2DBB8FC" transform="rotate(-12 485 925) translate(34 -34)">
      <path d="M 477.50 954.11 C 465.71 950.69 459.05 945.48 453.22 935.10 C 449.71 928.86 449.51 928.04 449.60 920.00 C 449.66 914.80 450.31 909.95 451.28 907.50 C 452.15 905.30 452.89 904.09 452.93 904.81 C 452.97 905.53 453.50 905.81 454.11 905.43 C 454.72 905.06 456.94 905.32 459.05 906.02 C 463.89 907.61 467.78 906.22 470.17 902.03 L 471.85 899.10 L 475.85 900.68 C 481.68 902.96 486.59 901.81 489.10 897.55 C 491.40 893.65 494.52 892.76 499.10 894.69 C 500.90 895.44 503.08 895.94 503.94 895.80 C 508.69 894.99 524.65 911.69 521.83 914.51 C 521.60 914.73 518.52 914.02 514.98 912.92 C 511.44 911.81 507.40 911.04 506.02 911.21 C 503.90 911.45 503.53 911.98 503.70 914.50 C 504.17 921.71 507.42 929.46 511.73 933.66 C 514.08 935.95 515.99 938.20 515.97 938.66 C 515.95 939.12 515.48 938.71 514.92 937.75 C 513.00 934.45 511.01 935.69 510.88 940.25 C 510.82 942.59 510.82 945.01 510.90 945.63 C 511.12 947.55 506.28 949.99 499.00 951.64 C 495.16 952.50 492.26 953.62 492.57 954.11 C 494.85 957.81 514.00 949.19 514.00 944.46 C 514.00 943.72 514.45 942.84 515.00 942.50 C 517.62 940.88 515.54 944.72 511.74 948.52 C 504.50 955.77 490.85 957.99 477.50 954.11ZM 452.84 912.13 C 454.27 907.38 454.28 905.91 452.88 908.32 C 451.30 911.04 450.03 916.00 450.91 916.00 C 451.34 916.00 452.20 914.26 452.84 912.13Z" />
    </g>
    <g fill="#F2DBB8FC">
      <path d="M 678.42 945.86 C 678.12 945.39 676.77 945.00 675.42 945.00 C 671.51 945.00 662.80 938.41 660.72 933.89 C 659.73 931.72 659.22 929.46 659.59 928.86 C 659.96 928.26 660.26 920.96 660.25 912.64 C 660.25 904.31 660.53 899.03 660.87 900.90 L 661.50 904.30 L 664.75 901.56 C 666.54 900.06 668.00 898.22 668.00 897.48 C 668.00 896.75 669.20 895.20 670.68 894.04 C 673.13 892.11 674.15 891.99 682.98 892.60 C 691.27 893.17 692.83 893.02 694.30 891.56 C 695.23 890.62 696.06 888.99 696.12 887.93 C 696.19 886.87 696.36 885.55 696.50 885.00 C 696.64 884.45 696.81 883.33 696.88 882.50 C 697.09 879.86 708.00 880.70 708.00 883.36 C 708.00 883.99 709.11 885.79 710.46 887.36 C 711.81 888.93 713.44 891.85 714.09 893.86 C 714.73 895.86 715.60 897.95 716.02 898.50 C 716.44 899.05 717.28 901.98 717.90 905.00 C 721.11 920.90 710.41 938.96 694.50 944.50 C 689.02 946.41 679.26 947.24 678.42 945.86ZM 697.04 924.75 C 702.17 921.29 705.34 912.69 705.43 902.00 C 705.51 892.43 703.61 884.39 700.92 882.96 C 698.13 881.46 697.75 883.32 699.57 889.59 C 701.53 896.33 701.78 910.65 699.99 914.09 C 697.83 918.27 695.78 920.00 693.00 920.00 C 689.56 920.00 688.34 918.55 682.04 907.00 C 676.21 896.33 673.52 893.32 671.37 895.11 C 669.36 896.78 669.68 898.35 672.60 901.08 C 675.52 903.80 678.04 908.37 681.01 916.29 C 683.65 923.36 686.84 926.28 692.60 926.88 C 693.21 926.95 695.21 925.99 697.04 924.75Z" />
    </g>
    <g fill="#E4B437F7">
      <path d="M 434.53 1013.88 C 410.64 1011.00 373.00 996.20 373.00 989.70 C 373.00 989.03 374.64 986.63 376.65 984.36 L 380.30 980.24 L 389.90 984.99 C 408.43 994.16 422.41 998.29 441.00 1000.10 C 473.25 1003.23 495.61 996.55 522.01 975.91 C 528.33 970.97 538.29 962.19 544.14 956.38 L 554.78 945.84 L 559.14 946.81 L 563.50 947.79 L 560.00 947.95 C 556.60 948.12 556.66 948.17 561.85 949.81 L 567.20 951.50 L 557.35 961.18 C 551.93 966.51 543.67 974.13 539.00 978.13 C 530.51 985.38 509.50 999.70 501.02 1004.00 C 495.92 1006.59 483.40 1011.00 481.15 1011.00 C 480.33 1011.00 478.80 1011.78 477.75 1012.73 C 476.12 1014.20 473.38 1014.48 459.17 1014.65 C 450.00 1014.76 438.91 1014.41 434.53 1013.88Z" />
    </g>
    <g fill="#050402E0">
      <path d="M 769.50 1002.84 C 767.85 1002.29 765.83 1001.58 765.00 1001.27 C 763.25 1000.60 763.41 1000.64 755.00 998.55 C 751.42 997.66 747.75 996.52 746.84 996.02 C 745.93 995.51 741.21 994.35 736.34 993.44 C 731.48 992.54 727.27 991.43 727.00 991.00 C 726.73 990.57 722.45 989.45 717.51 988.53 C 712.56 987.60 708.06 986.48 707.51 986.04 C 706.95 985.60 702.68 984.48 698.01 983.54 C 693.34 982.61 689.29 981.52 689.01 981.13 C 688.73 980.74 684.23 979.58 679.00 978.56 C 673.77 977.54 669.01 976.32 668.41 975.86 C 667.81 975.40 667.04 975.29 666.70 975.63 C 666.36 975.97 665.28 975.90 664.29 975.47 C 661.46 974.25 658.74 973.67 655.41 973.58 C 653.13 973.52 652.42 973.09 652.72 971.95 C 653.49 969.02 651.26 968.29 610.50 958.05 C 595.65 954.31 580.12 950.12 576.00 948.72 C 568.97 946.35 562.58 944.84 553.75 943.49 C 549.47 942.83 549.44 942.71 551.59 935.69 C 552.47 932.83 553.34 929.97 553.53 929.33 C 553.76 928.55 558.33 929.81 567.10 933.08 C 574.37 935.78 581.14 938.00 582.15 938.00 C 585.23 938.00 604.90 943.68 617.00 948.07 C 636.38 955.09 650.02 959.03 652.65 958.37 C 655.03 957.77 664.02 959.70 665.00 961.02 C 665.27 961.39 668.76 962.49 672.75 963.46 C 676.74 964.42 680.00 965.62 680.00 966.11 C 680.00 966.60 680.85 967.00 681.89 967.00 C 684.16 967.00 694.30 970.13 695.00 971.05 C 695.91 972.24 709.49 974.86 709.83 973.92 C 710.68 971.60 715.51 973.63 716.00 976.50 C 716.09 977.05 716.43 977.73 716.74 978.00 C 717.06 978.27 717.00 977.94 716.60 977.25 C 716.15 976.47 716.48 976.00 717.47 976.00 C 718.35 976.00 719.33 976.70 719.66 977.56 C 719.99 978.41 720.90 978.87 721.68 978.57 C 722.46 978.27 724.09 978.67 725.30 979.46 C 727.77 981.08 750.68 988.96 753.00 988.99 C 753.83 989.00 755.74 989.66 757.24 990.44 C 758.75 991.23 762.13 992.19 764.74 992.57 C 767.36 992.95 770.26 993.65 771.19 994.13 C 772.21 994.66 773.12 994.61 773.50 994.00 C 774.30 992.71 776.00 992.70 776.00 994.00 C 776.00 994.55 775.33 995.00 774.50 995.00 C 772.15 995.00 772.74 996.56 775.58 997.85 C 778.56 999.21 778.34 1001.35 775.16 1001.82 C 773.95 1002.00 773.23 1002.56 773.54 1003.07 C 774.24 1004.20 773.43 1004.15 769.50 1002.84Z" />
    </g>
    <g fill="#3E3D3BF5">
      <path d="M 449.43 642.99 C 447.18 642.13 443.98 637.85 444.03 635.79 C 444.07 634.26 447.27 630.55 451.76 626.82 C 454.74 624.34 454.84 624.08 453.01 623.50 C 451.91 623.15 450.67 623.08 450.25 623.35 C 449.83 623.61 448.01 623.20 446.20 622.44 C 442.10 620.72 439.74 615.49 439.79 608.26 C 439.86 599.49 444.14 588.16 447.50 587.83 C 452.56 587.34 459.00 587.57 459.00 588.25 C 459.00 588.66 459.84 589.00 460.86 589.00 C 462.89 589.00 470.06 593.49 471.22 595.48 C 471.62 596.17 475.03 598.81 478.80 601.36 C 484.27 605.07 486.50 606.00 489.87 606.00 C 494.09 606.00 498.94 607.87 502.25 610.78 C 505.27 613.43 504.43 617.38 499.99 621.39 C 496.39 624.64 495.57 624.95 492.08 624.40 C 488.47 623.82 487.23 624.39 474.85 632.26 C 467.51 636.92 460.60 641.18 459.50 641.73 C 456.36 643.28 451.70 643.87 449.43 642.99Z" />
    </g>
    <g fill="#CACAC8F2">
      <path d="M 437.23 694.33 C 434.95 693.42 432.83 688.04 433.52 684.93 C 433.87 683.32 434.63 682.00 435.20 682.00 C 435.84 682.00 435.76 681.41 435.00 680.50 C 434.16 679.49 434.08 678.59 434.75 677.75 C 435.29 677.06 436.50 674.16 437.43 671.31 C 438.36 668.45 440.00 665.00 441.06 663.65 C 442.13 662.29 443.00 660.87 443.00 660.48 C 443.00 660.09 444.86 657.55 447.14 654.84 C 451.72 649.36 485.69 626.00 489.07 626.00 C 490.30 626.00 491.00 626.69 491.00 627.91 C 491.00 629.57 489.17 632.21 482.22 640.57 C 479.93 643.32 475.01 653.86 474.55 657.00 C 474.34 658.38 473.84 661.75 473.42 664.50 C 473.00 667.25 472.74 669.86 472.85 670.30 C 472.95 670.75 472.35 671.79 471.51 672.63 C 470.67 673.47 470.21 674.54 470.50 674.99 C 471.10 675.97 463.85 684.00 462.37 684.00 C 461.81 684.00 460.33 685.09 459.08 686.42 C 457.83 687.74 455.73 689.10 454.41 689.43 C 453.08 689.77 452.00 690.51 452.00 691.08 C 452.00 691.65 451.55 691.84 451.00 691.50 C 450.45 691.16 450.00 691.29 450.00 691.78 C 450.00 693.67 440.36 695.59 437.23 694.33Z" />
    </g>
    <g fill="#CACAC8F2">
      <path d="M 428.80 500.64 C 422.38 497.79 417.00 488.54 417.00 480.36 C 417.00 469.99 429.29 458.00 439.92 458.00 C 445.42 458.00 448.16 459.25 452.38 463.67 C 466.20 478.14 456.28 502.23 436.64 501.92 C 433.81 501.87 430.28 501.30 428.80 500.64Z" />
    </g>
    <g fill="#EBEBEAF5">
      <path d="M 433.20 905.80 C 431.27 903.87 431.81 899.18 434.50 894.60 L 436.99 890.34 L 450.75 888.04 C 458.31 886.78 469.45 884.50 475.50 882.99 C 490.87 879.15 499.56 877.67 502.47 878.40 C 503.84 878.75 506.55 880.42 508.48 882.12 C 513.44 886.47 513.28 889.84 507.93 893.55 C 503.94 896.32 503.76 896.34 499.68 894.86 C 494.34 892.93 491.46 893.69 489.04 897.70 C 486.54 901.80 481.58 902.92 475.85 900.68 L 471.85 899.10 L 470.17 902.03 C 467.78 906.22 463.89 907.61 459.05 906.02 C 456.94 905.32 454.72 905.06 454.11 905.43 C 453.41 905.87 453.00 905.17 453.00 903.56 C 453.00 900.25 451.51 900.35 446.10 904.02 C 441.43 907.18 435.41 908.01 433.20 905.80Z" />
    </g>
    <g fill="#CACAC8F2">
      <path d="M 436.73 553.04 C 428.36 549.77 425.00 543.96 425.00 532.78 C 425.01 527.38 425.50 524.69 426.92 522.37 C 429.81 517.63 435.14 514.08 441.30 512.78 C 446.12 511.77 447.35 511.86 450.86 513.44 C 455.99 515.75 458.36 518.30 461.07 524.42 C 465.84 535.20 460.47 548.98 449.77 553.45 C 445.05 555.42 442.63 555.35 436.73 553.04Z" />
    </g>
    <g fill="#050402E0">
      <path d="M 532.21 524.52 C 527.44 520.51 524.71 512.86 524.71 503.47 C 524.70 497.89 525.23 494.31 526.44 491.77 C 529.47 485.38 527.02 484.88 516.13 489.65 C 509.85 492.39 508.26 492.60 510.05 490.44 C 512.12 487.94 519.28 484.11 525.11 482.37 C 532.05 480.31 543.51 480.97 551.05 483.86 C 558.22 486.61 563.45 491.51 570.74 502.27 C 574.34 507.59 572.95 507.94 568.95 502.72 C 565.60 498.36 558.26 492.73 554.45 491.60 C 552.47 491.01 552.40 491.36 552.43 501.75 C 552.46 510.96 552.13 513.26 550.10 517.79 C 548.79 520.69 546.60 523.96 545.23 525.04 C 541.66 527.84 535.89 527.62 532.21 524.52Z" />
    </g>
    <g fill="#050402E0">
      <path d="M 657.02 523.25 C 652.91 519.13 650.00 511.19 650.00 504.10 C 650.00 499.73 648.60 498.80 646.44 501.75 C 644.20 504.81 643.51 502.07 645.54 498.21 C 652.28 485.42 665.66 479.84 680.66 483.55 C 687.43 485.23 691.86 487.15 695.25 489.89 C 698.67 492.66 696.91 492.83 690.75 490.32 C 687.31 488.92 682.48 487.72 680.00 487.64 C 674.96 487.48 674.84 487.80 677.39 494.50 C 680.72 503.27 678.56 518.05 673.09 523.91 C 670.65 526.52 669.46 527.00 665.48 527.00 C 661.36 527.00 660.29 526.52 657.02 523.25Z" />
    </g>
    <g fill="#E4B437F7">
      <path d="M 428.98 857.43 C 427.77 854.27 427.69 848.00 428.86 848.00 C 429.33 848.00 431.37 845.31 433.40 842.03 C 436.46 837.08 437.78 835.85 441.14 834.84 C 447.25 833.01 452.35 835.14 457.45 841.68 C 459.68 844.52 462.20 846.88 463.06 846.93 C 463.93 846.97 465.33 845.52 466.19 843.72 C 468.79 838.27 472.93 834.10 476.93 832.90 C 483.05 831.07 486.79 833.46 495.73 844.96 C 495.93 845.22 497.01 844.85 498.14 844.14 C 499.27 843.44 500.34 843.01 500.52 843.19 C 500.71 843.37 500.60 846.34 500.29 849.78 C 499.79 855.22 499.42 856.11 497.44 856.60 C 494.07 857.45 488.56 854.39 484.48 849.41 C 482.49 846.98 480.33 845.02 479.68 845.04 C 479.03 845.06 476.76 847.58 474.64 850.64 C 467.31 861.18 460.19 861.55 450.93 851.85 L 445.21 845.85 L 443.35 848.60 C 440.10 853.42 433.32 860.00 431.61 860.00 C 430.70 860.00 429.51 858.85 428.98 857.43Z" />
    </g>
    <g fill="#D4383EFB">
      <path d="M 633.00 951.41 C 624.48 948.43 616.87 945.75 616.09 945.46 C 615.01 945.06 615.27 944.31 617.22 942.22 C 620.11 939.11 628.09 927.13 634.00 916.99 C 636.22 913.20 638.52 909.80 639.11 909.43 C 640.84 908.36 642.46 910.73 649.01 923.88 L 655.18 936.27 L 654.48 943.38 C 653.69 951.40 651.74 957.04 649.80 956.92 C 649.09 956.88 641.52 954.40 633.00 951.41Z" />
    </g>
    <g fill="#CACAC8F2">
      <path d="M 723.75 499.87 C 722.23 499.30 720.77 497.86 720.50 496.67 C 720.22 495.47 720.33 486.21 720.75 476.07 L 721.50 457.64 L 724.26 456.90 C 737.16 453.46 751.63 474.79 745.55 488.28 C 741.53 497.21 731.23 502.69 723.75 499.87Z" />
    </g>
    <g fill="#3E3D3BF5">
      <path d="M 560.00 476.71 L 539.50 466.61 L 529.50 466.56 C 524.00 466.53 517.53 466.85 515.13 467.28 C 511.42 467.94 510.85 467.83 511.35 466.53 C 511.75 465.49 511.33 465.00 510.05 465.00 C 505.40 465.00 503.21 467.55 507.25 468.25 C 509.42 468.63 509.43 468.68 507.50 469.50 C 506.40 469.97 503.82 471.40 501.77 472.68 C 499.72 473.95 497.79 475.00 497.48 475.00 C 494.74 475.00 509.06 459.54 514.42 456.72 C 522.65 452.39 541.15 454.17 556.00 460.72 C 572.33 467.93 575.51 469.89 578.68 474.69 C 581.84 479.46 583.42 486.11 581.50 486.57 C 580.95 486.70 571.27 482.26 560.00 476.71Z" />
    </g>
    <g fill="#E4B437F7">
      <path d="M 425.32 829.22 C 424.66 828.80 423.82 826.11 423.44 823.23 L 422.74 818.01 L 426.42 816.47 C 428.44 815.63 430.49 815.18 430.97 815.48 C 431.46 815.78 436.23 815.32 441.58 814.46 C 454.03 812.46 474.14 812.46 486.13 814.46 C 501.21 816.98 500.00 816.32 500.00 822.13 L 500.00 827.23 L 495.75 826.61 C 474.58 823.54 456.01 823.70 438.82 827.10 C 433.49 828.15 428.54 829.23 427.82 829.49 C 427.09 829.76 425.97 829.64 425.32 829.22Z" />
    </g>
    <g fill="#EBEBEAF5">
      <path d="M 532.01 530.33 C 531.20 529.97 526.65 525.78 521.92 521.02 C 513.91 512.98 505.96 501.42 506.03 497.90 C 506.05 496.57 521.30 489.00 523.96 489.00 C 524.76 489.00 524.96 489.64 524.51 490.75 C 522.50 495.71 521.76 504.69 522.91 510.00 C 525.62 522.47 531.33 529.00 539.51 529.00 C 545.02 529.00 548.15 526.48 551.61 519.23 C 553.99 514.25 554.36 512.22 554.42 503.75 C 554.47 498.39 554.64 494.01 554.82 494.00 C 556.35 493.99 564.74 501.09 569.00 506.00 C 574.02 511.79 574.22 512.23 572.92 514.65 C 571.05 518.14 565.05 523.94 562.00 525.21 C 553.09 528.91 548.58 530.07 541.50 530.50 C 537.10 530.76 532.83 530.68 532.01 530.33Z" />
    </g>
    <g fill="#EBEBEAF5">
      <path d="M 661.01 899.81 C 661.01 897.44 661.30 893.15 661.64 890.29 L 662.27 885.07 L 673.38 880.48 C 679.50 877.95 688.33 874.01 693.00 871.72 C 704.66 866.01 709.68 864.74 712.75 866.75 C 716.18 869.01 718.19 873.38 717.09 876.19 C 716.29 878.23 711.91 882.74 711.25 882.20 C 710.29 881.42 708.99 882.29 708.92 883.75 C 708.86 885.14 708.73 885.19 708.27 884.00 C 707.39 881.68 705.86 881.03 701.25 881.02 C 698.19 881.00 696.97 881.42 696.88 882.50 C 696.81 883.33 696.64 884.45 696.50 885.00 C 696.36 885.55 696.19 886.87 696.12 887.93 C 696.06 888.99 695.23 890.62 694.30 891.56 C 692.83 893.02 691.27 893.17 682.98 892.60 C 674.15 891.99 673.13 892.11 670.68 894.04 C 669.20 895.20 668.00 896.71 668.00 897.40 C 668.00 898.09 666.99 899.56 665.75 900.68 C 661.48 904.52 661.00 904.43 661.01 899.81Z" />
    </g>
    <g fill="#D4383EFB">
      <path d="M 660.81 872.55 L 661.11 860.50 L 665.04 860.45 C 670.08 860.39 674.32 856.51 676.03 850.39 C 676.71 847.95 677.66 845.71 678.14 845.41 C 678.62 845.12 681.05 846.34 683.54 848.14 C 686.57 850.31 689.31 851.43 691.79 851.50 C 696.75 851.63 698.37 852.80 699.67 857.16 C 701.73 864.09 700.73 865.57 690.63 870.44 C 685.61 872.87 678.25 876.05 674.27 877.51 C 670.30 878.96 665.58 881.16 663.77 882.38 L 660.50 884.61 L 660.81 872.55Z" />
    </g>
    <g fill="#3E3D3BF5">
      <path d="M 638.61 481.75 C 640.16 471.42 644.19 467.22 660.10 459.40 C 668.77 455.14 675.21 453.52 683.50 453.51 C 690.35 453.50 692.29 453.91 697.00 456.35 C 700.02 457.92 704.01 460.62 705.85 462.35 C 709.32 465.62 715.55 474.00 714.50 474.00 C 714.17 474.00 710.44 472.09 706.20 469.75 L 698.50 465.50 L 687.50 465.52 C 673.90 465.55 667.57 467.56 654.24 476.08 C 649.15 479.34 644.61 482.00 644.15 482.00 C 643.69 482.00 642.50 482.90 641.50 484.00 C 638.73 487.06 637.91 486.42 638.61 481.75ZM 703.43 463.89 C 703.13 463.40 701.81 463.00 700.50 463.00 C 699.19 463.00 697.85 462.57 697.53 462.04 C 697.20 461.52 696.22 461.36 695.34 461.70 C 694.11 462.17 694.50 462.71 697.04 464.02 C 700.29 465.70 704.50 465.61 703.43 463.89Z" />
    </g>
    <g id="shoot-baton-front" fill="#724919EF" transform="rotate(-16 515 930) translate(86 -84)">
      <path d="M 540.00 941.30 C 535.33 939.92 527.72 937.72 523.10 936.43 C 518.48 935.13 513.68 933.11 512.43 931.94 C 509.83 929.49 506.55 922.23 505.58 916.75 C 504.75 912.11 505.27 912.06 517.00 915.63 C 521.67 917.05 531.35 919.90 538.50 921.96 L 551.50 925.71 L 551.23 930.11 C 551.08 932.52 550.32 936.13 549.54 938.11 C 548.48 940.81 548.41 942.01 549.26 942.86 C 550.79 944.39 549.90 944.24 540.00 941.30Z" />
    </g>
    <g fill="#CACAC8F2">
      <path d="M 716.51 550.02 C 716.18 549.48 716.43 546.22 717.08 542.77 C 717.72 539.32 718.53 530.42 718.88 523.00 L 719.50 509.50 L 722.29 509.18 C 726.43 508.70 733.77 512.68 736.49 516.87 C 740.40 522.90 741.46 528.07 740.15 534.61 C 738.79 541.38 735.33 546.28 729.98 549.01 C 725.90 551.09 717.56 551.72 716.51 550.02Z" />
    </g>
    <g fill="#EBEBEAF5">
      <path d="M 661.69 530.87 C 656.08 530.03 654.85 529.25 645.53 520.68 L 638.55 514.27 L 641.53 510.86 C 643.16 508.99 645.26 506.34 646.20 504.98 L 647.90 502.50 L 647.95 506.27 C 648.09 516.21 655.08 527.33 662.21 528.93 C 665.84 529.75 671.63 528.38 674.46 526.03 C 679.84 521.57 682.84 503.18 679.68 494.12 L 678.15 489.75 L 682.41 490.33 C 684.76 490.65 689.49 492.14 692.92 493.62 L 699.16 496.33 L 698.50 499.83 C 696.93 508.21 693.76 514.23 687.64 520.45 C 678.94 529.29 671.37 532.33 661.69 530.87Z" />
    </g>
    <g fill="#E4B437F7">
      <path d="M 531.71 1132.18 C 529.37 1130.16 525.10 1126.77 522.23 1124.66 C 516.97 1120.81 515.93 1119.23 518.25 1118.60 C 522.87 1117.35 532.84 1115.70 540.47 1114.93 C 549.04 1114.07 549.60 1114.13 553.08 1116.43 C 560.23 1121.17 564.00 1125.32 563.36 1127.75 C 562.94 1129.36 562.02 1130.00 560.13 1130.01 C 557.59 1130.02 545.96 1132.70 539.24 1134.83 C 536.23 1135.79 535.63 1135.58 531.71 1132.18ZM 548.78 1128.35 C 558.51 1126.21 558.89 1125.14 551.50 1120.58 C 547.16 1117.90 545.65 1117.52 540.00 1117.64 C 533.18 1117.78 525.47 1119.43 524.53 1120.95 C 523.67 1122.35 536.20 1130.96 538.50 1130.53 C 539.60 1130.33 544.23 1129.35 548.78 1128.35Z" />
    </g>
    <g fill="#CACAC8F2">
      <path d="M 499.00 606.92 C 495.28 604.92 492.53 604.10 490.50 604.38 C 486.00 605.01 473.13 596.88 472.33 592.90 C 472.01 591.31 471.33 590.00 470.82 590.00 C 470.30 590.00 470.15 589.56 470.49 589.02 C 470.82 588.48 470.66 587.24 470.14 586.26 C 469.28 584.66 465.96 565.18 465.48 559.00 C 465.24 555.80 465.96 553.86 467.11 554.57 C 467.61 554.88 470.34 559.94 473.17 565.82 C 479.22 578.37 487.64 591.41 493.69 597.64 C 496.06 600.08 498.00 602.48 498.00 602.97 C 498.00 603.45 499.68 605.24 501.73 606.93 C 506.28 610.68 505.99 610.68 499.00 606.92Z" />
    </g>
    <g fill="#E4B437F7">
      <path d="M 661.84 857.75 C 661.76 856.51 661.60 854.20 661.49 852.62 C 661.35 850.59 661.82 849.60 663.08 849.27 C 664.27 848.96 665.54 846.57 666.91 842.08 C 669.27 834.31 671.34 832.03 676.67 831.32 C 679.89 830.89 681.33 831.38 685.73 834.40 C 688.60 836.38 691.40 838.00 691.95 838.00 C 693.21 838.00 696.24 843.76 696.58 846.81 C 696.76 848.41 696.12 849.45 694.49 850.19 C 691.27 851.65 688.18 850.68 682.67 846.48 L 677.99 842.90 L 677.00 845.49 C 676.46 846.92 675.73 849.24 675.37 850.64 C 674.36 854.67 668.44 860.00 664.97 860.00 C 662.60 860.00 661.97 859.54 661.84 857.75Z" />
    </g>
    <g id="shoot-baton-back" fill="#724919EF" transform="rotate(-16 515 930) translate(86 -84)">
      <path d="M 438.50 913.91 C 435.20 912.82 431.47 912.18 430.21 912.49 C 428.95 912.80 426.48 912.42 424.71 911.65 C 422.95 910.87 420.06 909.69 418.30 909.02 C 413.96 907.36 412.00 904.02 412.00 898.26 C 412.00 889.40 415.99 886.31 425.09 888.10 C 433.22 889.70 434.54 891.07 431.97 895.29 C 425.48 905.92 435.08 913.14 446.26 906.05 L 450.91 903.10 L 449.82 905.80 C 449.22 907.28 448.44 910.07 448.10 911.99 C 447.33 916.24 446.21 916.47 438.50 913.91Z" />
    </g>
    <g fill="#D4383EFB">
      <path d="M 658.69 811.81 C 658.17 809.65 655.34 787.12 654.76 780.50 C 654.55 778.12 655.21 776.92 657.94 774.71 C 661.89 771.51 662.10 771.69 664.00 780.00 C 664.70 783.02 665.64 785.98 666.11 786.57 C 666.57 787.16 667.66 790.54 668.53 794.07 C 669.41 797.61 670.73 802.09 671.47 804.04 C 672.65 807.16 672.62 807.84 671.16 809.68 C 670.25 810.83 667.78 812.07 665.68 812.44 C 663.58 812.81 661.27 813.34 660.55 813.62 C 659.78 813.91 659.02 813.17 658.69 811.81Z" />
    </g>
    <g fill="#DDB991F9">
      <path d="M 689.50 926.28 C 686.13 925.47 683.12 921.92 681.01 916.29 C 678.04 908.37 675.52 903.80 672.60 901.08 C 669.68 898.35 669.36 896.78 671.37 895.11 C 673.52 893.32 676.21 896.33 682.04 907.00 C 688.34 918.55 689.56 920.00 693.00 920.00 C 695.78 920.00 697.83 918.27 699.99 914.09 C 701.78 910.65 701.53 896.33 699.57 889.59 C 697.75 883.32 698.13 881.46 700.92 882.96 C 703.61 884.39 705.51 892.43 705.43 902.00 C 705.34 912.69 702.17 921.29 697.04 924.75 C 693.66 927.03 693.08 927.15 689.50 926.28Z" />
    </g>
    <g id="shoot-baton-head" fill="#EBEBEAF5" transform="rotate(-16 515 930) translate(86 -84)">
      <path d="M 781.26 1011.75 C 780.12 1010.51 779.07 1008.60 778.93 1007.50 C 778.50 1004.14 780.17 997.65 782.21 994.75 C 783.85 992.40 784.84 992.00 788.92 992.00 C 796.16 992.00 799.74 996.07 799.56 1004.10 C 799.47 1007.89 798.92 1009.17 796.48 1011.32 C 792.42 1014.89 784.38 1015.11 781.26 1011.75Z" />
    </g>
    <g fill="#DDB991F9">
      <path d="M 593.22 601.98 C 581.72 598.97 577.14 595.44 580.44 592.13 C 581.78 590.79 582.67 590.92 588.60 593.35 C 601.23 598.54 612.89 598.60 624.96 593.52 C 630.74 591.08 631.42 590.99 632.87 592.45 C 634.95 594.52 633.60 596.73 628.71 599.27 C 619.14 604.23 605.73 605.26 593.22 601.98Z" />
    </g>
    <g fill="#D4383EFB">
      <path d="M 660.76 837.80 C 660.47 832.13 660.34 827.39 660.45 827.26 C 660.56 827.12 665.21 825.88 670.78 824.51 C 681.90 821.75 688.87 821.28 689.39 823.25 C 689.57 823.94 690.52 826.91 691.50 829.86 C 693.82 836.85 692.40 837.95 686.45 833.75 C 683.34 831.56 681.02 830.73 678.00 830.73 C 671.90 830.73 668.91 833.40 666.40 841.08 C 665.19 844.79 663.67 847.63 662.79 847.80 C 661.54 848.04 661.18 846.29 660.76 837.80Z" />
    </g>
    <g fill="#DDB991F9">
      <path d="M 599.62 563.00 C 593.51 560.61 587.00 556.16 587.00 554.36 C 587.00 552.29 589.10 552.71 595.18 556.00 C 605.26 561.46 614.53 561.27 620.31 555.49 C 625.77 550.03 625.81 545.47 620.45 539.21 C 616.59 534.71 616.14 533.00 618.80 533.00 C 620.72 533.00 627.03 539.06 628.88 542.68 C 629.50 543.89 630.00 546.98 630.00 549.57 C 630.00 553.76 629.54 554.72 625.75 558.52 C 619.14 565.13 609.36 566.81 599.62 563.00Z" />
    </g>
    <g fill="#E4B437F7">
      <path d="M 660.20 820.47 L 660.50 814.70 L 666.90 812.95 C 670.43 811.98 673.71 810.48 674.20 809.60 C 674.81 808.51 676.51 808.00 679.51 808.00 C 684.24 808.00 685.14 808.85 687.58 815.69 C 688.98 819.60 687.89 821.00 683.46 821.00 C 681.73 821.00 676.76 821.95 672.41 823.11 C 658.50 826.81 659.85 827.10 660.20 820.47Z" />
    </g>
    <g fill="#8E2222FD">
      <path d="M 560.00 1012.67 C 560.00 1012.20 567.49 991.55 569.83 985.54 C 573.52 976.10 574.65 978.75 575.50 998.79 C 576.01 1010.59 575.95 1011.04 574.15 1010.08 C 572.32 1009.10 568.21 1009.92 563.76 1012.13 C 562.02 1013.00 560.00 1013.29 560.00 1012.67Z" />
    </g>
    <g fill="#A87226F2">
      <path d="M 533.28 1128.22 C 531.51 1126.72 528.81 1124.52 527.28 1123.33 L 524.50 1121.16 L 527.50 1119.99 C 529.15 1119.34 533.90 1118.57 538.05 1118.28 C 546.06 1117.71 549.90 1118.86 554.72 1123.26 C 557.41 1125.73 556.84 1127.00 553.03 1127.00 C 551.46 1127.00 547.33 1127.89 543.84 1128.99 C 540.35 1130.08 537.27 1130.97 537.00 1130.96 C 536.73 1130.95 535.05 1129.72 533.28 1128.22ZM 549.50 1126.58 L 556.50 1125.36 L 552.06 1122.43 C 548.01 1119.76 546.92 1119.51 539.56 1119.64 C 535.13 1119.71 530.41 1120.20 529.08 1120.72 C 526.71 1121.65 526.78 1121.77 532.08 1125.71 C 536.72 1129.16 537.86 1129.60 540.00 1128.76 C 541.38 1128.23 545.65 1127.24 549.50 1126.58Z" />
    </g>
    <g fill="#CACAC8F2">
      <path d="M 623.25 736.34 C 622.56 736.06 622.00 735.37 622.00 734.81 C 622.00 734.25 622.61 734.02 623.35 734.31 C 624.30 734.67 624.63 734.09 624.44 732.41 C 624.27 730.84 624.69 730.00 625.65 730.00 C 626.46 730.00 626.82 729.51 626.45 728.92 C 625.78 727.83 629.85 724.31 631.25 724.76 C 631.66 724.89 632.00 724.60 632.00 724.12 C 632.00 722.57 637.37 722.14 639.98 723.48 C 641.37 724.19 644.89 725.09 647.80 725.48 C 651.97 726.05 653.04 726.56 652.79 727.84 C 652.32 730.32 647.46 732.20 640.10 732.76 C 636.47 733.04 632.25 733.90 630.72 734.67 C 629.19 735.45 627.50 735.81 626.97 735.48 C 626.44 735.15 626.00 735.36 626.00 735.94 C 626.00 737.06 625.29 737.16 623.25 736.34Z" />
    </g>
    <g fill="#E4B437F7">
      <path d="M 585.07 755.37 C 582.61 752.24 582.44 748.98 584.52 744.96 C 587.36 739.46 594.86 739.88 598.28 745.74 C 599.89 748.50 600.00 749.48 599.00 752.49 C 597.65 756.59 595.50 758.00 590.64 758.00 C 588.06 758.00 586.60 757.31 585.07 755.37Z" />
    </g>
    <g fill="#E4B437F7">
      <path d="M 590.45 851.55 C 586.91 848.00 587.10 842.74 590.92 838.92 C 594.22 835.63 595.86 835.36 599.93 837.46 C 603.00 839.05 604.00 840.81 604.00 844.63 C 604.00 852.68 595.79 856.88 590.45 851.55Z" />
    </g>
    <g fill="#E4B437F7">
      <path d="M 590.07 802.37 C 587.20 798.71 587.36 793.55 590.45 790.45 C 595.93 784.98 604.00 789.46 604.00 797.97 C 604.00 804.38 594.11 807.49 590.07 802.37Z" />
    </g>
    <g fill="#8E2222FD">
      <path d="M 488.49 812.02 C 488.82 811.48 489.23 805.97 489.40 799.77 L 489.71 788.50 L 495.71 776.00 C 499.01 769.12 502.52 761.70 503.52 759.50 C 506.18 753.63 511.38 745.06 512.30 745.03 C 513.61 744.98 511.92 752.26 509.74 756.00 C 508.62 757.92 506.12 762.42 504.18 766.00 C 502.25 769.58 499.62 774.07 498.33 775.98 C 497.05 777.90 496.00 780.00 496.00 780.65 C 496.00 781.30 495.50 782.00 494.88 782.21 C 493.33 782.72 492.06 791.72 491.92 803.25 C 491.81 812.22 491.64 813.00 489.84 813.00 C 488.76 813.00 488.15 812.56 488.49 812.02Z" />
    </g>
    <g fill="#724919EF">
      <path d="M 532.08 1125.71 C 526.78 1121.77 526.71 1121.65 529.08 1120.72 C 530.41 1120.20 535.13 1119.71 539.56 1119.64 C 546.92 1119.51 548.01 1119.76 552.06 1122.43 L 556.50 1125.36 L 549.50 1126.58 C 545.65 1127.24 541.38 1128.23 540.00 1128.76 C 537.86 1129.60 536.72 1129.16 532.08 1125.71Z" />
    </g>
    <g fill="#E4B437F7">
      <path d="M 657.46 1106.50 C 640.68 1099.49 640.00 1099.15 640.00 1097.66 C 640.00 1096.29 651.37 1093.00 656.12 1093.00 C 659.81 1093.00 657.91 1094.80 653.33 1095.64 C 650.77 1096.11 648.51 1096.97 648.32 1097.54 C 647.92 1098.74 663.53 1106.01 666.50 1106.00 C 667.60 1106.00 669.99 1105.08 671.81 1103.97 C 674.90 1102.09 677.00 1102.06 677.00 1103.91 C 677.00 1104.34 674.84 1106.04 672.21 1107.68 L 667.42 1110.66 L 657.46 1106.50Z" />
    </g>
    <g fill="#CACAC8F2">
      <path d="M 620.64 713.75 C 619.06 711.24 615.49 700.25 614.62 695.25 C 613.35 687.96 619.74 694.17 624.15 704.52 C 627.39 712.12 627.67 714.53 625.42 715.39 C 622.86 716.38 622.12 716.12 620.64 713.75Z" />
    </g>
    <g fill="#724919EF">
      <path d="M 658.75 1101.78 C 651.51 1098.37 650.37 1097.01 654.75 1096.99 C 656.26 1096.98 658.61 1096.41 659.97 1095.72 C 662.07 1094.66 663.06 1094.77 666.47 1096.44 C 672.95 1099.62 673.46 1100.53 670.10 1102.93 C 668.50 1104.07 666.81 1104.99 666.35 1104.98 C 665.88 1104.96 662.46 1103.52 658.75 1101.78Z" />
    </g>
    <g fill="#CACAC8F2">
      <path d="M 633.92 763.25 C 634.43 762.29 635.10 760.71 635.40 759.74 C 636.31 756.81 640.43 755.56 645.75 756.58 C 654.06 758.19 652.07 762.32 642.51 763.30 C 640.58 763.50 638.70 763.96 638.34 764.33 C 637.97 764.70 636.61 765.00 635.32 765.00 C 633.40 765.00 633.15 764.68 633.92 763.25Z" />
    </g>
    <g fill="#A87226F2">
      <path d="M 528.49 1131.45 C 524.77 1128.40 520.47 1125.26 518.93 1124.46 C 516.01 1122.95 514.20 1119.37 515.65 1117.99 C 516.63 1117.06 536.61 1113.00 540.20 1113.00 C 541.52 1113.00 543.14 1112.46 543.80 1111.80 C 544.67 1110.93 545.30 1110.90 546.10 1111.70 C 547.40 1113.00 545.96 1113.52 538.50 1114.46 C 530.12 1115.51 517.55 1118.14 516.60 1119.04 C 515.63 1119.96 516.35 1120.63 528.28 1130.06 L 536.05 1136.21 L 545.28 1133.69 C 556.51 1130.62 562.14 1129.58 560.00 1130.99 C 559.17 1131.53 557.60 1131.99 556.50 1132.01 C 555.40 1132.03 550.70 1133.16 546.05 1134.52 C 541.40 1135.88 537.07 1137.00 536.43 1137.00 C 535.78 1137.00 532.21 1134.50 528.49 1131.45Z" />
    </g>
    <g fill="#522D096D">
      <path d="M 535.50 1156.00 C 533.30 1155.65 542.47 1155.32 555.88 1155.27 C 578.50 1155.20 580.45 1155.05 582.88 1153.23 C 584.76 1151.81 585.44 1150.47 585.28 1148.46 C 585.12 1146.43 585.36 1145.96 586.16 1146.76 C 587.84 1148.44 586.28 1152.77 583.28 1154.74 C 580.94 1156.27 577.90 1156.51 560.05 1156.58 C 548.75 1156.62 537.70 1156.36 535.50 1156.00Z" />
    </g>
    <g fill="#EBEBEAF5">
      <path d="M 492.57 954.11 C 492.26 953.62 495.16 952.50 499.00 951.64 C 506.28 949.99 511.12 947.55 510.90 945.63 C 510.82 945.01 510.82 942.59 510.88 940.25 C 511.01 935.53 513.10 934.44 515.04 938.08 C 516.48 940.77 514.21 945.80 509.94 949.39 C 505.41 953.21 493.94 956.32 492.57 954.11Z" />
    </g>
    <g fill="#A87226F2">
      <path d="M 654.82 1107.13 C 641.58 1101.68 638.00 1099.62 638.00 1097.43 C 638.00 1095.61 643.09 1093.32 649.15 1092.39 C 651.54 1092.03 654.08 1091.27 654.79 1090.71 C 655.67 1090.01 656.42 1090.02 657.12 1090.72 C 657.84 1091.44 655.75 1092.30 650.33 1093.49 C 640.21 1095.73 638.45 1096.63 640.14 1098.67 C 640.84 1099.52 642.34 1100.58 643.46 1101.04 C 644.58 1101.49 649.33 1103.50 654.00 1105.51 C 668.48 1111.72 667.21 1111.58 672.66 1107.68 C 675.32 1105.78 677.36 1103.61 677.18 1102.86 C 676.91 1101.73 677.08 1101.73 678.18 1102.82 C 679.27 1103.92 679.07 1104.46 677.00 1106.03 C 675.62 1107.07 673.30 1108.83 671.84 1109.96 C 670.38 1111.08 668.58 1111.99 667.84 1111.97 C 667.10 1111.95 661.24 1109.77 654.82 1107.13Z" />
    </g>
    <g fill="#E4B437F7">
      <path d="M 643.57 801.43 C 640.40 798.25 642.22 793.00 646.50 793.00 C 649.48 793.00 651.00 794.89 651.00 798.59 C 651.00 802.99 646.75 804.61 643.57 801.43Z" />
    </g>
    <g fill="#E4B437F7">
      <path d="M 647.39 873.97 C 644.90 873.02 643.81 870.69 644.71 868.25 C 645.59 865.86 647.01 865.03 650.23 865.02 C 652.32 865.00 653.11 865.59 653.59 867.50 C 654.75 872.13 651.50 875.52 647.39 873.97Z" />
    </g>
    <g fill="#CACAC8F2">
      <path d="M 634.01 751.02 C 633.48 750.04 632.82 747.40 632.54 745.16 C 632.26 742.92 631.91 740.53 631.76 739.85 C 631.62 739.17 632.22 738.46 633.10 738.27 C 634.22 738.02 635.34 739.46 636.85 743.09 C 638.03 745.94 639.00 749.05 639.00 750.02 C 639.00 752.51 635.22 753.27 634.01 751.02Z" />
    </g>
    <g fill="#E4B437F7">
      <path d="M 646.20 836.80 C 645.54 836.14 645.00 834.35 645.00 832.82 C 645.00 830.69 645.58 829.89 647.50 829.41 C 652.19 828.23 654.62 831.10 652.88 835.79 C 651.98 838.24 648.21 838.81 646.20 836.80Z" />
    </g>
    <g fill="#CACAC8F2">
      <path d="M 647.49 708.69 C 646.67 707.51 646.00 706.04 646.00 705.40 C 646.00 704.76 645.33 703.69 644.51 703.01 C 643.69 702.33 643.27 701.37 643.57 700.89 C 643.87 700.40 643.69 700.00 643.18 700.00 C 642.66 700.00 642.00 699.12 641.72 698.05 C 641.24 696.19 641.33 696.17 643.69 697.72 C 646.17 699.34 653.00 707.64 653.00 709.03 C 653.00 710.94 648.89 710.69 647.49 708.69Z" />
    </g>
    <g fill="#A87226F2">
      <path d="M 656.06 1101.84 C 647.32 1097.71 646.64 1096.05 653.68 1096.02 C 655.43 1096.01 657.59 1095.27 658.48 1094.38 C 659.37 1093.49 660.41 1093.08 660.80 1093.46 C 661.93 1094.60 657.86 1097.00 654.81 1097.00 C 653.26 1097.00 652.00 1097.36 652.00 1097.81 C 652.00 1098.63 665.05 1105.02 666.64 1104.98 C 667.11 1104.97 668.62 1104.08 670.00 1103.00 C 671.38 1101.92 673.17 1101.05 674.00 1101.05 C 674.83 1101.06 673.70 1102.17 671.50 1103.53 C 669.30 1104.88 666.83 1105.95 666.00 1105.91 C 665.17 1105.86 660.70 1104.03 656.06 1101.84Z" />
    </g>
    <g fill="#AD372FE8">
      <path d="M 512.50 748.75 C 512.87 746.43 512.69 745.00 512.05 745.00 C 511.47 745.00 511.00 745.36 511.00 745.81 C 511.00 746.25 510.28 747.49 509.41 748.56 C 508.54 749.63 508.75 748.92 509.89 747.00 C 511.02 745.08 512.95 741.59 514.18 739.25 C 515.40 736.91 516.98 735.00 517.70 735.00 C 519.25 735.00 519.37 736.38 518.03 738.76 C 517.49 739.72 515.90 743.20 514.48 746.50 C 512.25 751.73 511.99 752.02 512.50 748.75Z" />
    </g>
    <g fill="#AD372FE8">
      <path d="M 493.05 787.32 C 493.02 785.57 493.68 783.47 494.50 782.64 C 495.32 781.82 496.00 780.77 496.00 780.30 C 496.00 779.84 497.05 777.90 498.33 775.98 C 499.62 774.07 502.31 769.44 504.31 765.71 C 508.41 758.05 511.01 754.08 510.98 755.53 C 510.97 756.06 510.08 757.62 509.00 759.00 C 507.92 760.38 507.03 761.84 507.02 762.25 C 507.01 762.66 504.68 767.16 501.83 772.25 C 498.99 777.34 495.86 783.52 494.88 786.00 C 493.14 790.39 493.09 790.42 493.05 787.32Z" />
    </g>
    <g fill="#F2DBB8FC">
      <path d="M 593.05 671.13 C 592.11 668.85 588.37 666.17 576.14 659.02 C 567.50 653.97 559.33 648.93 557.97 647.81 C 555.65 645.91 555.71 645.91 559.00 647.90 C 560.92 649.06 569.14 653.86 577.26 658.58 C 588.14 664.89 592.43 667.94 593.59 670.16 C 594.44 671.83 594.95 673.38 594.71 673.62 C 594.47 673.87 593.72 672.74 593.05 671.13Z" />
    </g>
    <g fill="#D58738F6">
      <path d="M 655.02 898.04 C 652.49 893.07 652.46 891.00 654.92 891.00 C 656.24 891.00 657.05 891.94 657.50 894.01 C 657.87 895.66 658.58 896.76 659.08 896.45 C 659.59 896.14 660.00 896.81 660.00 897.94 C 660.00 899.07 659.44 899.89 658.75 899.75 C 658.06 899.61 657.61 900.06 657.75 900.75 C 658.23 903.16 657.02 901.96 655.02 898.04Z" />
    </g>
    <g fill="#EBEBEAF5">
      <path d="M 550.50 480.92 C 547.75 479.83 543.92 478.54 542.00 478.07 C 538.66 477.24 538.74 477.20 543.86 477.10 C 549.06 477.00 557.00 480.08 557.00 482.18 C 557.00 483.33 556.17 483.17 550.50 480.92Z" />
    </g>
    <g fill="#CACAC8F2">
      <path d="M 634.42 693.03 C 632.50 692.25 628.63 686.04 629.52 685.15 C 629.97 684.69 637.09 690.20 638.97 692.46 C 640.04 693.75 639.95 693.99 638.37 693.94 C 637.34 693.90 635.56 693.49 634.42 693.03Z" />
    </g>
    <g fill="#A87226F2">
      <path d="M 654.28 898.77 C 651.91 894.14 651.37 892.18 652.10 890.81 C 652.63 889.81 653.70 889.00 654.47 889.00 C 656.39 889.00 660.30 894.71 659.38 896.19 C 658.91 896.95 658.23 896.16 657.50 894.01 C 656.20 890.13 654.31 889.03 653.33 891.58 C 652.92 892.65 653.76 895.43 655.47 898.69 C 657.01 901.64 658.08 904.25 657.85 904.48 C 657.62 904.72 656.01 902.14 654.28 898.77Z" />
    </g>
    <g fill="#595750F5">
      <path d="M 504.00 471.48 C 504.00 471.19 505.24 470.43 506.75 469.80 C 509.40 468.69 509.41 468.63 507.25 468.25 C 503.20 467.55 505.40 465.00 510.05 465.00 C 511.32 465.00 511.75 465.49 511.36 466.50 C 511.03 467.38 511.35 468.01 512.14 468.02 C 512.89 468.03 511.54 468.93 509.14 470.02 C 504.45 472.15 504.00 472.28 504.00 471.48Z" />
    </g>
    <g fill="#AD372FE8">
      <path d="M 489.65 813.31 C 491.68 812.91 491.81 812.29 491.93 802.25 C 491.99 796.40 492.26 791.40 492.52 791.14 C 492.79 790.88 493.00 795.92 493.00 802.33 L 493.00 814.00 L 490.25 813.86 C 488.05 813.75 487.93 813.64 489.65 813.31Z" />
    </g>
    <g fill="#EBEBEAF5">
      <path d="M 661.58 479.68 C 663.84 477.99 668.02 477.46 675.00 477.97 C 678.91 478.26 678.52 478.40 672.00 479.05 C 667.88 479.47 663.38 480.12 662.00 480.52 C 659.54 481.22 659.54 481.20 661.58 479.68Z" />
    </g>
    <g fill="#9B7451F0">
      <path d="M 607.29 1093.26 C 611.03 1093.06 616.88 1093.07 620.29 1093.26 C 623.71 1093.46 620.65 1093.61 613.50 1093.61 C 606.35 1093.61 603.56 1093.45 607.29 1093.26Z" />
    </g>
    <g fill="#D58738F6">
      <path d="M 622.38 824.50 C 622.38 817.90 622.55 815.33 622.74 818.79 C 622.94 822.25 622.94 827.65 622.74 830.79 C 622.54 833.93 622.38 831.10 622.38 824.50Z" />
    </g>
    <g fill="#EBEBEAF5">
      <path d="M 696.00 452.32 L 691.50 449.91 L 695.48 450.55 C 700.05 451.27 703.00 452.64 703.00 454.04 C 703.00 455.48 700.99 454.99 696.00 452.32Z" />
    </g>
    <g fill="#D58738F6">
      <path d="M 609.38 808.00 C 609.38 801.67 609.54 799.09 609.74 802.25 C 609.94 805.41 609.94 810.59 609.74 813.75 C 609.54 816.91 609.38 814.33 609.38 808.00Z" />
    </g>
    <g fill="#8E2222FD">
      <path d="M 587.07 954.23 C 581.88 952.80 578.05 951.49 578.57 951.34 C 579.08 951.18 584.23 952.36 590.00 953.96 C 595.77 955.55 599.60 956.85 598.50 956.85 C 597.40 956.85 592.25 955.67 587.07 954.23Z" />
    </g>
    <g fill="#EBEBEAF5">
      <path d="M 663.32 474.39 C 667.31 472.23 674.18 469.89 673.55 470.91 C 672.75 472.21 664.26 476.01 662.26 475.96 C 661.01 475.93 661.32 475.47 663.32 474.39Z" />
    </g>
    <g fill="#D58738F6">
      <path d="M 450.75 1000.26 C 453.64 1000.06 458.36 1000.06 461.25 1000.26 C 464.14 1000.46 461.77 1000.63 456.00 1000.63 C 450.23 1000.63 447.86 1000.46 450.75 1000.26Z" />
    </g>
    <g fill="#EBC961FC">
      <path d="M 560.50 949.47 C 556.53 948.16 556.53 948.15 559.62 948.08 C 564.16 947.97 569.05 949.10 568.42 950.12 C 567.71 951.28 565.40 951.09 560.50 949.47Z" />
    </g>
    <g fill="#D37570F0">
      <path d="M 616.78 1023.26 C 619.69 1023.06 624.19 1023.06 626.78 1023.27 C 629.38 1023.47 627.00 1023.64 621.50 1023.63 C 616.00 1023.63 613.88 1023.46 616.78 1023.26Z" />
    </g>
    <g fill="#595750F5">
      <path d="M 697.04 464.02 C 694.50 462.71 694.11 462.17 695.34 461.70 C 696.22 461.36 697.20 461.52 697.53 462.04 C 697.85 462.57 699.19 463.00 700.50 463.00 C 703.45 463.00 704.63 464.60 702.16 465.25 C 701.16 465.51 698.85 464.96 697.04 464.02Z" />
    </g>
    <g fill="#EBEBEAF5">
      <path d="M 571.40 487.61 L 570.30 485.23 L 574.16 486.96 C 579.51 489.35 579.88 490.00 575.92 489.99 C 573.30 489.99 572.24 489.43 571.40 487.61Z" />
    </g>
    <g fill="#595750F5">
      <path d="M 656.00 475.01 C 658.69 472.85 668.98 467.64 669.51 468.18 C 669.68 468.35 666.15 470.42 661.66 472.76 C 657.17 475.10 654.62 476.12 656.00 475.01Z" />
    </g>
    <g fill="#EBEBEAF5">
      <path d="M 545.00 453.50 L 541.50 452.15 L 546.25 452.08 C 549.84 452.02 551.00 452.37 551.00 453.50 C 551.00 455.30 549.66 455.30 545.00 453.50Z" />
    </g>
    <g fill="#D0643FF3">
      <path d="M 609.36 835.00 C 609.36 829.77 609.53 827.64 609.74 830.25 C 609.94 832.86 609.94 837.14 609.74 839.75 C 609.53 842.36 609.36 840.23 609.36 835.00Z" />
    </g>
    <g fill="#AD372FE8">
      <path d="M 495.17 775.24 C 497.88 769.03 502.39 760.06 502.66 760.33 C 503.14 760.81 496.09 776.00 495.39 776.00 C 495.08 776.00 494.98 775.66 495.17 775.24Z" />
    </g>
    <g fill="#EBEBEAF5">
      <path d="M 533.45 471.10 C 532.93 470.60 531.60 469.98 530.50 469.71 C 529.14 469.39 529.46 469.21 531.50 469.16 C 533.15 469.12 535.85 469.71 537.50 470.46 L 540.50 471.84 L 537.45 471.92 C 535.77 471.96 533.97 471.59 533.45 471.10Z" />
    </g>
    <g fill="#A9502CF0">
      <path d="M 623.34 823.50 C 623.35 819.10 623.52 817.42 623.73 819.78 C 623.94 822.13 623.94 825.73 623.73 827.78 C 623.51 829.82 623.34 827.90 623.34 823.50Z" />
    </g>
    <g fill="#F2DBB8FC">
      <path d="M 617.20 748.95 C 616.52 744.97 616.14 741.53 616.36 741.31 C 616.94 740.72 619.27 753.68 618.82 755.03 C 618.61 755.67 617.88 752.93 617.20 748.95Z" />
    </g>
    <g fill="#EBEBEAF5">
      <path d="M 688.50 469.00 C 686.93 468.32 687.36 468.13 690.50 468.09 C 692.70 468.06 695.17 468.47 696.00 469.00 C 697.94 470.25 691.42 470.25 688.50 469.00Z" />
    </g>
    <g fill="#9B7451F0">
      <path d="M 494.78 1114.27 C 497.13 1114.06 500.73 1114.06 502.78 1114.27 C 504.82 1114.49 502.90 1114.66 498.50 1114.66 C 494.10 1114.65 492.42 1114.48 494.78 1114.27Z" />
    </g>
    <g fill="#8E2222FD">
      <path d="M 623.00 962.92 C 619.42 961.88 618.11 961.26 620.07 961.53 C 624.22 962.10 633.22 964.80 631.00 964.80 C 630.17 964.81 626.58 963.96 623.00 962.92Z" />
    </g>
    <g fill="#D58738F6">
      <path d="M 465.25 824.27 C 467.31 824.06 470.69 824.06 472.75 824.27 C 474.81 824.49 473.12 824.66 469.00 824.66 C 464.88 824.66 463.19 824.49 465.25 824.27Z" />
    </g>
    <g fill="#D58738F6">
      <path d="M 498.98 827.34 C 499.54 827.06 500.00 824.66 500.00 822.00 C 500.00 819.34 499.54 816.94 498.98 816.66 C 498.41 816.38 498.52 816.27 499.23 816.41 C 500.07 816.58 500.50 818.48 500.50 822.00 C 500.50 825.52 500.07 827.42 499.23 827.59 C 498.52 827.73 498.41 827.62 498.98 827.34Z" />
    </g>
    <g fill="#D37570F0">
      <path d="M 600.73 1023.28 C 602.50 1023.06 605.65 1023.05 607.73 1023.27 C 609.80 1023.49 608.35 1023.67 604.50 1023.67 C 600.65 1023.68 598.95 1023.50 600.73 1023.28Z" />
    </g>
    <g fill="#241A15D9">
      <path d="M 576.50 936.54 C 572.61 934.76 574.22 934.73 580.50 936.48 C 584.51 937.59 584.91 937.87 582.50 937.89 C 580.85 937.90 578.15 937.29 576.50 936.54Z" />
    </g>
    <g fill="#EBEBEAF5">
      <path d="M 450.98 913.07 C 451.91 909.83 453.92 906.00 453.97 907.38 C 454.03 909.26 451.64 916.00 450.91 916.00 C 450.49 916.00 450.52 914.68 450.98 913.07Z" />
    </g>
    <g fill="#3E3D3BF5">
      <path d="M 640.05 508.75 C 640.07 508.06 640.73 506.15 641.50 504.50 L 642.92 501.50 L 642.31 504.40 C 641.87 506.53 642.03 507.10 642.93 506.54 C 643.81 506.00 643.78 506.38 642.83 507.90 C 641.37 510.24 639.98 510.67 640.05 508.75Z" />
    </g>
    <g fill="#241A15D9">
      <path d="M 448.35 586.77 C 449.82 585.82 453.93 585.91 456.50 586.94 C 457.82 587.47 456.57 587.70 452.85 587.62 C 449.74 587.55 447.72 587.17 448.35 586.77Z" />
    </g>
    <g fill="#595750F5">
      <path d="M 702.50 468.93 C 699.20 467.32 697.08 466.00 697.78 466.00 C 699.26 466.00 709.00 470.79 709.00 471.52 C 709.00 472.13 709.48 472.32 702.50 468.93Z" />
    </g>
    <g fill="#AD372FE8">
      <path d="M 525.50 938.00 C 522.75 936.99 521.17 936.16 522.00 936.16 C 522.83 936.16 525.75 936.99 528.50 938.00 C 531.25 939.01 532.83 939.84 532.00 939.84 C 531.17 939.84 528.25 939.01 525.50 938.00Z" />
    </g>
    <g fill="#F2DBB8FC">
      <path d="M 608.81 711.26 C 607.89 708.11 607.28 705.39 607.46 705.21 C 608.00 704.67 611.20 714.91 610.83 715.99 C 610.65 716.53 609.74 714.40 608.81 711.26Z" />
    </g>
    <g fill="#F2DBB8FC">
      <path d="M 612.14 724.36 C 611.51 721.23 611.19 718.48 611.41 718.25 C 611.64 718.03 612.35 720.39 613.00 723.50 C 613.65 726.61 613.97 729.36 613.73 729.60 C 613.49 729.85 612.77 727.49 612.14 724.36Z" />
    </g>
    <g fill="#D0643FF3">
      <path d="M 559.50 960.00 C 562.77 956.70 565.66 954.00 565.94 954.00 C 566.21 954.00 563.77 956.70 560.50 960.00 C 557.23 963.30 554.34 966.00 554.06 966.00 C 553.79 966.00 556.23 963.30 559.50 960.00Z" />
    </g>
    <g fill="#D58738F6">
      <path d="M 453.75 812.28 C 455.54 812.05 458.46 812.05 460.25 812.28 C 462.04 812.50 460.57 812.68 457.00 812.68 C 453.43 812.68 451.96 812.50 453.75 812.28Z" />
    </g>
    <g fill="#D58738F6">
      <path d="M 429.56 860.09 C 429.25 859.59 429.85 859.41 430.90 859.68 C 432.13 860.01 434.32 858.87 437.15 856.45 L 441.50 852.72 L 437.29 856.86 C 433.19 860.89 430.70 861.93 429.56 860.09Z" />
    </g>
    <g fill="#A9957AF7">
      <path d="M 592.75 1092.28 C 594.54 1092.05 597.46 1092.05 599.25 1092.28 C 601.04 1092.50 599.58 1092.68 596.00 1092.68 C 592.42 1092.68 590.96 1092.50 592.75 1092.28Z" />
    </g>
    <g fill="#D37570F0">
      <path d="M 520.50 1034.00 C 516.34 1032.94 520.43 1032.89 525.50 1033.94 C 528.86 1034.64 529.02 1034.77 526.50 1034.77 C 524.85 1034.76 522.15 1034.42 520.50 1034.00Z" />
    </g>
    <g fill="#595750F5">
      <path d="M 495.00 476.30 C 495.00 475.82 496.24 474.07 497.75 472.41 C 499.26 470.75 499.90 470.16 499.17 471.11 C 498.45 472.05 497.73 473.63 497.59 474.61 C 497.32 476.40 495.00 477.92 495.00 476.30Z" />
    </g>
    <g fill="#AD372FE8">
      <path d="M 490.05 786.88 C 489.95 785.62 494.18 776.85 494.65 777.32 C 494.92 777.59 494.00 779.99 492.62 782.65 C 491.23 785.32 490.07 787.22 490.05 786.88Z" />
    </g>
    <g fill="#A87226F2">
      <path d="M 649.33 838.28 C 651.35 837.97 652.55 836.94 653.54 834.68 C 654.30 832.93 654.94 832.19 654.96 833.03 C 655.04 835.95 652.01 839.01 649.19 838.85 L 646.50 838.70 L 649.33 838.28Z" />
    </g>
    <g fill="#D58738F6">
      <path d="M 589.07 802.37 C 587.88 800.85 587.05 798.40 587.11 796.62 C 587.23 793.60 587.25 793.62 587.96 797.25 C 588.36 799.31 589.50 801.89 590.50 803.00 C 591.49 804.10 592.05 805.00 591.73 805.00 C 591.41 805.00 590.21 803.81 589.07 802.37Z" />
    </g>
    <g fill="#D58738F6">
      <path d="M 596.25 805.04 C 598.31 804.64 600.80 803.68 601.80 802.91 C 602.79 802.13 602.54 802.51 601.24 803.75 C 599.72 805.20 597.76 805.96 595.69 805.89 C 592.51 805.77 592.52 805.77 596.25 805.04Z" />
    </g>
    <g fill="#D58738F6">
      <path d="M 467.77 812.28 C 469.57 812.05 472.27 812.06 473.77 812.29 C 475.27 812.51 473.80 812.70 470.50 812.69 C 467.20 812.68 465.97 812.50 467.77 812.28Z" />
    </g>
    <g fill="#DDB991F9">
      <path d="M 619.77 1024.28 C 621.57 1024.05 624.27 1024.06 625.77 1024.29 C 627.27 1024.51 625.80 1024.70 622.50 1024.69 C 619.20 1024.68 617.97 1024.50 619.77 1024.28Z" />
    </g>
    <g fill="#DDB991F9">
      <path d="M 496.77 1113.28 C 498.57 1113.05 501.27 1113.06 502.77 1113.29 C 504.27 1113.51 502.80 1113.70 499.50 1113.69 C 496.20 1113.68 494.97 1113.50 496.77 1113.28Z" />
    </g>
    <g fill="#EB897FC1">
      <path d="M 486.77 956.28 C 488.57 956.05 491.27 956.06 492.77 956.29 C 494.27 956.51 492.80 956.70 489.50 956.69 C 486.20 956.68 484.97 956.50 486.77 956.28Z" />
    </g>
    <g fill="#8E2222FD">
      <path d="M 560.00 929.00 C 557.52 927.96 556.17 927.10 557.00 927.08 C 557.83 927.07 560.30 927.90 562.50 928.95 C 567.70 931.40 565.83 931.45 560.00 929.00Z" />
    </g>
    <g fill="#8E2222FD">
      <path d="M 626.19 950.32 C 623.82 949.48 622.05 948.61 622.27 948.40 C 622.48 948.18 625.10 948.87 628.08 949.93 C 631.06 950.99 632.83 951.85 632.00 951.85 C 631.17 951.84 628.56 951.16 626.19 950.32Z" />
    </g>
    <g fill="#8E2222FD">
      <path d="M 605.00 958.50 C 602.52 957.78 601.40 957.19 602.50 957.18 C 603.60 957.16 606.30 957.75 608.50 958.47 C 613.68 960.18 610.87 960.20 605.00 958.50Z" />
    </g>
    <g fill="#CACAC8F2">
      <path d="M 779.15 999.50 C 779.02 996.25 780.47 993.13 781.59 994.25 C 781.97 994.64 781.81 995.53 781.24 996.23 C 780.66 996.93 779.98 998.62 779.73 1000.00 C 779.32 1002.26 779.26 1002.21 779.15 999.50Z" />
    </g>
  </g>
</svg>

